<svg width="1172" height="214" viewBox="0 0 1172 214" fill="none" xmlns="http://www.w3.org/2000/svg">
<g clip-path="url(#clip0_135_36007)">
<rect width="1172" height="214" rx="24" fill="#F3F3F7"/>
<rect width="1172" height="214" rx="24" fill="url(#paint0_linear_135_36007)"/>
<g clip-path="url(#clip1_135_36007)">
<path d="M50.9136 128.066L-44.3827 242.472C-48.393 247.282 -50.7835 253.238 -51.2111 259.484C-51.6386 265.731 -50.0812 271.946 -46.7624 277.239C-38.2174 290.85 -21.9679 308.982 8.5733 324.99C40.9463 341.958 67.4096 343.099 84.5146 340.776C90.5608 339.952 96.2101 337.274 100.687 333.109C105.165 328.944 108.251 323.496 109.522 317.513L140.578 171.614" fill="white" fill-opacity="0.1"/>
<path d="M92.8125 155.879C135.436 176.58 175.67 181.666 182.677 167.238C189.684 152.81 160.812 124.332 118.189 103.63C75.5653 82.9289 35.3316 77.8435 28.3242 92.2715C21.3167 106.7 50.1892 135.178 92.8125 155.879Z" fill="#E6E6ED"/>
<path d="M92.6019 156.313C71.9413 146.278 53.8352 134.116 41.6197 122.065C29.281 109.895 24.4058 99.2392 27.8923 92.0605C31.3789 84.8818 42.7676 82.1249 59.9623 84.2985C76.9855 86.4503 97.7396 93.16 118.4 103.194C139.061 113.229 157.166 125.391 169.382 137.442C181.721 149.612 186.596 160.268 183.109 167.446C179.623 174.625 168.234 177.382 151.04 175.208C134.016 173.058 113.262 166.347 92.6019 156.313ZM117.978 104.064C97.4088 94.0738 76.7613 87.3941 59.8384 85.255C43.0862 83.1376 32.0473 85.7038 28.7557 92.4812C25.464 99.2585 30.2721 109.521 42.2938 121.379C54.4381 133.357 72.4542 145.455 93.0231 155.445C113.592 165.435 134.239 172.115 151.162 174.254C167.914 176.371 178.953 173.805 182.245 167.028C185.537 160.25 180.729 149.988 168.707 138.13C156.563 126.152 138.547 114.054 117.978 104.064Z" fill="#F3F3F7"/>
<path d="M97.646 145.927C153.647 173.126 205.134 182.638 212.645 167.174C220.156 151.709 180.846 117.124 124.845 89.925C68.8435 62.7262 17.3566 53.2137 9.84584 68.6782C2.33506 84.1426 41.6445 118.728 97.646 145.927Z" fill="white"/>
<path d="M97.4351 146.36C70.3124 133.187 46.2252 117.882 29.6107 103.264C12.8502 88.5178 5.6771 76.1605 9.4137 68.467C13.1503 60.7734 27.2971 58.7721 49.2503 62.8269C71.0118 66.8474 97.9334 76.3165 125.056 89.4895C152.179 102.662 176.266 117.967 192.88 132.585C209.641 147.331 216.814 159.689 213.077 167.382C209.341 175.075 195.194 177.077 173.241 173.022C151.479 169.002 124.557 159.533 97.4351 146.36ZM124.634 90.3585C97.5867 77.2222 70.7515 67.782 49.0722 63.7765C38.5594 61.8339 29.8436 61.2791 23.1661 62.1266C16.3735 62.989 12.0372 65.2637 10.277 68.8877C8.51694 72.5117 9.41001 77.3266 12.9321 83.1982C16.3945 88.9704 22.2193 95.4777 30.2457 102.54C46.7972 117.103 70.8074 132.356 97.8562 145.493C124.905 158.63 151.738 168.07 173.418 172.075C183.93 174.018 192.646 174.572 199.324 173.725C206.116 172.863 210.453 170.588 212.213 166.964C213.973 163.34 213.08 158.525 209.558 152.653C206.095 146.881 200.271 140.374 192.244 133.312C175.692 118.75 151.68 103.496 124.633 90.36L124.634 90.3585Z" fill="#8B8E99"/>
<path opacity="0.4" d="M165.827 124.266C159.815 136.644 137.025 129.18 114.479 118.884C89.9161 107.668 66.5972 91.1363 72.5172 78.9471C78.5734 66.5664 89.2731 57.0834 102.271 52.577C115.268 48.0706 129.503 48.9085 141.854 54.9072C154.205 60.9058 163.664 71.5756 168.158 84.5773C172.652 97.579 171.815 111.852 165.828 124.266L165.827 124.266Z" fill="white"/>
<path d="M160.962 118.874C160.849 118.819 160.763 118.723 160.72 118.606C160.678 118.488 160.683 118.359 160.734 118.244C162.761 113.737 164.018 108.923 164.453 104.002C164.464 103.875 164.526 103.757 164.623 103.675C164.721 103.593 164.847 103.552 164.974 103.563C165.101 103.574 165.218 103.635 165.3 103.733C165.382 103.831 165.422 103.957 165.411 104.084C164.966 109.112 163.681 114.031 161.61 118.637C161.558 118.754 161.462 118.845 161.343 118.891C161.224 118.936 161.092 118.933 160.975 118.881L160.962 118.874Z" fill="#8B8E99"/>
<path d="M164.551 95.0671C164.479 95.0323 164.417 94.9799 164.37 94.9148C164.323 94.8497 164.294 94.7739 164.284 94.6942C162.826 83.1923 156.944 72.7286 147.891 65.5315C147.795 65.4513 147.734 65.3367 147.721 65.212C147.708 65.0873 147.744 64.9623 147.822 64.8636C147.899 64.765 148.012 64.7004 148.136 64.6836C148.26 64.6668 148.386 64.6992 148.486 64.7738C157.737 72.1276 163.747 82.8192 165.237 94.5719C165.248 94.6579 165.236 94.7453 165.201 94.8249C165.166 94.9044 165.111 94.9732 165.041 95.0239C164.97 95.0746 164.888 95.1054 164.801 95.113C164.715 95.1206 164.629 95.1048 164.551 95.0671V95.0671Z" fill="#8B8E99"/>
<path d="M109.719 117.174C89.0915 107.156 75.079 96.0465 71.8539 87.0301C70.7854 84.041 70.8632 81.2506 72.0844 78.7364C75.0869 72.5098 79.284 66.9346 84.4351 62.3303C89.5862 57.726 95.5901 54.183 102.103 51.9044C108.615 49.6257 115.509 48.6563 122.388 49.0515C129.267 49.4467 135.997 51.1988 142.192 54.2074C148.386 57.2161 153.924 61.4222 158.488 66.5846C163.052 71.747 166.552 77.7644 168.788 84.2919C171.024 90.8195 171.951 97.7288 171.517 104.624C171.083 111.519 169.296 118.265 166.258 124.475C163.423 130.314 156.697 132.359 146.27 130.552C138.247 129.162 127.782 125.488 114.279 119.322C112.726 118.612 111.206 117.896 109.719 117.174ZM141.705 55.2064C129.444 49.2683 115.318 48.4548 102.428 52.9444C89.5378 57.4339 78.9355 66.86 72.9471 79.1545C71.8437 81.4265 71.78 83.9656 72.758 86.7015C76.1273 96.13 91.7976 107.995 114.678 118.445C133.456 127.02 159.144 136.931 165.397 124.057C171.357 111.748 172.211 97.5872 167.769 84.6799C163.328 71.7727 153.955 61.1736 141.706 55.2081L141.705 55.2064Z" fill="#8B8E99"/>
<path opacity="0.4" d="M33.9247 85.005C37.2707 86.63 41.3055 85.2247 42.9367 81.8661C44.5679 78.5075 43.1778 74.4674 39.8319 72.8424C36.4859 71.2173 32.4511 72.6226 30.8199 75.9812C29.1887 79.3398 30.5787 83.3799 33.9247 85.005Z" fill="white"/>
<path d="M33.7143 85.4386C32.4306 84.8152 31.3614 83.8236 30.6417 82.5894C29.9221 81.3551 29.5843 79.9336 29.6713 78.5046C29.7582 77.0755 30.2659 75.7032 31.1301 74.5611C31.9943 73.4189 33.1763 72.5583 34.5265 72.088C35.8767 71.6178 37.3345 71.5589 38.7156 71.919C40.0967 72.2791 41.339 73.042 42.2855 74.1111C43.232 75.1802 43.8401 76.5075 44.0329 77.9252C44.2257 79.343 43.9946 80.7874 43.3688 82.076C42.528 83.8023 41.0393 85.1258 39.2293 85.7562C37.4194 86.3866 35.436 86.2724 33.7143 85.4386ZM39.6216 73.2756C38.5088 72.7351 37.26 72.538 36.0332 72.7092C34.8065 72.8804 33.6568 73.4123 32.7297 74.2375C31.8026 75.0627 31.1396 76.1442 30.8246 77.3453C30.5096 78.5464 30.5567 79.813 30.96 80.9851C31.3633 82.1572 32.1046 83.1821 33.0903 83.9301C34.0759 84.6782 35.2616 85.1158 36.4974 85.1877C37.7332 85.2596 38.9636 84.9625 40.033 84.3339C41.1024 83.7054 41.9628 82.7737 42.5053 81.6566C43.2311 80.1583 43.3352 78.4344 42.7945 76.8632C42.2539 75.2919 41.1128 74.0017 39.6216 73.2756V73.2756Z" fill="#8B8E99"/>
<path opacity="0.4" d="M100.967 139.09C104.313 140.715 108.347 139.31 109.979 135.951C111.61 132.592 110.22 128.552 106.874 126.927C103.528 125.302 99.4931 126.708 97.8619 130.066C96.2307 133.425 97.6207 137.465 100.967 139.09Z" fill="white"/>
<path d="M100.756 139.523C99.4721 138.9 98.4029 137.908 97.6832 136.674C96.9636 135.44 96.6258 134.018 96.7128 132.589C96.7997 131.16 97.3074 129.788 98.1716 128.646C99.0358 127.504 100.218 126.643 101.568 126.173C102.918 125.702 104.376 125.644 105.757 126.004C107.138 126.364 108.381 127.127 109.327 128.196C110.273 129.265 110.882 130.592 111.074 132.01C111.267 133.428 111.036 134.872 110.41 136.161C109.569 137.887 108.081 139.21 106.271 139.841C104.461 140.471 102.478 140.357 100.756 139.523V139.523ZM106.663 127.361C105.55 126.82 104.301 126.623 103.075 126.794C101.848 126.966 100.699 127.497 99.7715 128.322C98.8444 129.148 98.1815 130.229 97.8665 131.43C97.5515 132.631 97.5986 133.898 98.0019 135.07C98.4051 136.242 99.1464 137.267 100.132 138.015C101.118 138.763 102.303 139.2 103.539 139.272C104.775 139.344 106.005 139.047 107.074 138.418C108.144 137.79 109.004 136.858 109.546 135.741C110.272 134.243 110.376 132.519 109.835 130.948C109.295 129.377 108.154 128.087 106.663 127.361V127.361Z" fill="#8B8E99"/>
<path opacity="0.4" d="M184.912 158.336C188.258 159.961 192.292 158.556 193.924 155.197C195.555 151.839 194.165 147.798 190.819 146.173C187.473 144.548 183.438 145.954 181.807 149.312C180.175 152.671 181.566 156.711 184.912 158.336Z" fill="white"/>
<path d="M184.701 158.769C183.417 158.146 182.348 157.154 181.628 155.92C180.908 154.686 180.571 153.264 180.658 151.835C180.745 150.406 181.252 149.034 182.116 147.892C182.981 146.75 184.163 145.889 185.513 145.419C186.863 144.949 188.321 144.89 189.702 145.25C191.083 145.61 192.325 146.373 193.272 147.442C194.218 148.511 194.826 149.838 195.019 151.256C195.212 152.674 194.981 154.118 194.355 155.407C193.514 157.133 192.026 158.457 190.216 159.087C188.406 159.717 186.422 159.603 184.701 158.769V158.769ZM190.608 146.606C189.495 146.066 188.246 145.869 187.02 146.04C185.793 146.211 184.643 146.743 183.716 147.568C182.789 148.393 182.126 149.475 181.811 150.676C181.496 151.877 181.543 153.144 181.946 154.316C182.35 155.488 183.091 156.513 184.077 157.261C185.062 158.009 186.248 158.447 187.484 158.519C188.72 158.59 189.95 158.293 191.019 157.665C192.089 157.036 192.949 156.104 193.492 154.987C194.217 153.489 194.322 151.765 193.781 150.194C193.24 148.623 192.099 147.332 190.608 146.606V146.606Z" fill="#8B8E99"/>
<path opacity="0.4" d="M147.209 154.034C150.555 155.659 154.59 154.253 156.221 150.895C157.853 147.536 156.462 143.496 153.117 141.871C149.771 140.246 145.736 141.651 144.105 145.01C142.473 148.368 143.863 152.408 147.209 154.034Z" fill="white"/>
<path d="M146.998 154.467C145.715 153.843 144.646 152.852 143.926 151.618C143.206 150.383 142.869 148.962 142.955 147.533C143.042 146.104 143.55 144.732 144.414 143.589C145.279 142.447 146.46 141.587 147.811 141.116C149.161 140.646 150.619 140.587 152 140.947C153.381 141.307 154.623 142.07 155.57 143.139C156.516 144.208 157.124 145.536 157.317 146.954C157.51 148.371 157.279 149.816 156.653 151.104C155.812 152.831 154.323 154.154 152.514 154.784C150.704 155.415 148.72 155.301 146.998 154.467ZM152.906 142.304C151.793 141.763 150.544 141.566 149.317 141.737C148.091 141.908 146.941 142.44 146.014 143.265C145.087 144.091 144.424 145.172 144.108 146.373C143.793 147.574 143.84 148.841 144.244 150.013C144.647 151.185 145.388 152.21 146.374 152.958C147.36 153.706 148.545 154.144 149.781 154.216C151.017 154.288 152.247 153.991 153.317 153.362C154.386 152.734 155.247 151.802 155.789 150.685C156.515 149.187 156.619 147.463 156.078 145.892C155.538 144.32 154.397 143.03 152.906 142.304V142.304Z" fill="#8B8E99"/>
<path opacity="0.4" d="M60.2284 112.812C63.5744 114.437 67.6092 113.031 69.2404 109.673C70.8716 106.314 69.4815 102.274 66.1356 100.649C62.7896 99.0239 58.7548 100.429 57.1236 103.788C55.4924 107.146 56.8825 111.187 60.2284 112.812Z" fill="white"/>
<path d="M60.0175 113.245C58.7339 112.622 57.6646 111.63 56.9449 110.396C56.2253 109.162 55.8876 107.74 55.9745 106.311C56.0614 104.882 56.5691 103.51 57.4333 102.368C58.2975 101.226 59.4795 100.365 60.8297 99.8949C62.1799 99.4246 63.6377 99.3658 65.0188 99.7259C66.3999 100.086 67.6423 100.849 68.5887 101.918C69.5352 102.987 70.1433 104.314 70.3361 105.732C70.529 107.15 70.2979 108.594 69.6721 109.883C68.8312 111.609 67.3425 112.933 65.5326 113.563C63.7226 114.193 61.7393 114.079 60.0175 113.245V113.245ZM65.9249 101.083C64.8121 100.542 63.5632 100.344 62.3363 100.515C61.1094 100.686 59.9596 101.217 59.0321 102.042C58.1047 102.868 57.4415 103.949 57.1262 105.15C56.811 106.351 56.8579 107.618 57.2611 108.79C57.6642 109.963 58.4055 110.988 59.3912 111.736C60.3769 112.484 61.5627 112.922 62.7986 112.994C64.0345 113.066 65.265 112.768 66.3344 112.14C67.4039 111.511 68.2643 110.579 68.8069 109.462C69.5324 107.964 69.6364 106.241 69.0962 104.67C68.5559 103.099 67.4154 101.809 65.9249 101.083V101.083Z" fill="#8B8E99"/>
<path opacity="0.4" d="M186.009 127.462C184.891 128.615 183.401 129.333 181.806 129.486C180.21 129.64 178.614 129.219 177.304 128.299C175.993 127.379 175.054 126.021 174.654 124.467C174.254 122.913 174.419 121.265 175.121 119.819C175.187 119.684 175.257 119.553 175.33 119.425C179.131 122.128 182.7 124.811 186.009 127.462Z" fill="white"/>
<path d="M178.015 129.276C176.295 128.438 174.979 126.95 174.355 125.138C173.731 123.325 173.851 121.337 174.689 119.609C174.759 119.464 174.835 119.324 174.913 119.186L175.177 118.723L175.609 119.031C179.431 121.749 183.031 124.459 186.311 127.085L186.724 127.415L186.354 127.796C185.295 128.892 183.918 129.625 182.42 129.891C180.922 130.157 179.38 129.942 178.015 129.276ZM175.501 120.138C174.899 121.442 174.76 122.912 175.108 124.304C175.456 125.695 176.269 126.924 177.413 127.784C178.557 128.645 179.961 129.085 181.393 129.032C182.824 128.98 184.195 128.437 185.278 127.494C182.26 125.091 178.975 122.62 175.501 120.138Z" fill="#8B8E99"/>
<path opacity="0.4" d="M69.6128 68.5765C68.9163 70.0097 67.7379 71.1518 66.2856 71.8013C64.8332 72.4508 63.2002 72.566 61.6746 72.1266C60.149 71.6872 58.8288 70.7214 57.9469 69.3996C57.065 68.0778 56.6781 66.485 56.8544 64.902C60.9727 65.8517 65.2791 66.9789 69.7461 68.2803C69.7053 68.3785 69.6606 68.4781 69.6128 68.5765Z" fill="white"/>
<path d="M60.3914 72.1486C59.053 71.4962 57.9491 70.4452 57.2305 69.1389C56.5119 67.8326 56.2135 66.3348 56.376 64.8496L56.436 64.3105L56.9628 64.4322C61.1014 65.3867 65.4476 66.5258 69.8805 67.8177L70.3943 67.9672L70.1893 68.4632C70.1451 68.5704 70.0961 68.6789 70.0441 68.786C69.2034 70.512 67.715 71.8353 65.9055 72.4657C64.0959 73.096 62.1129 72.982 60.3914 72.1486V72.1486ZM57.2957 65.499C57.2615 66.9096 57.7026 68.2892 58.5477 69.415C59.3928 70.5409 60.5927 71.3473 61.9535 71.704C63.3143 72.0608 64.7568 71.9472 66.048 71.3814C67.3392 70.8156 68.4038 69.8308 69.0699 68.5859C65.0371 67.4204 61.082 66.3833 57.2957 65.499Z" fill="#8B8E99"/>
<path d="M70.1373 219.06C71.3712 221.37 72.2371 223.797 72.7366 226.345L72.8586 226.558C72.873 226.741 72.8595 226.893 72.8325 227.005C73.0343 227.949 73.1788 228.868 73.1969 229.818L73.3715 231.541C73.394 232.248 73.2305 233.207 73.218 233.694C73.2126 234.177 73.2208 234.701 73.1588 235.169C78.5088 237.405 82.9523 241.308 85.7914 246.337C87.0962 248.611 88.0784 251.066 88.5944 253.643C91.9124 269.441 80.101 282.663 65.0755 286.028C57.2685 287.524 49.2024 287.249 41.5624 285.196C30.8457 282.13 20.4953 277.95 10.6369 272.708L9.57697 272.121L9.6182 270.849C9.99036 259.646 11.5522 248.512 14.2813 237.576C16.3607 229.939 20.1289 222.809 25.3097 216.737C35.701 205.297 53.013 201.659 65.1185 212.562C66.0778 213.398 66.9477 214.33 67.7083 215.33L67.9565 215.762C68.685 216.689 69.3308 217.655 69.9098 218.664L70.1373 219.06ZM77.2 257.743C76.8591 255.972 75.134 254.811 73.3137 255.145C71.5141 255.515 70.3151 257.265 70.6479 259.088C71.1105 261.898 69.7289 264.757 67.2156 266.212L67.1041 266.276C66.2415 266.684 65.5896 267.393 65.2678 268.251C64.9461 269.11 65.0244 270.072 65.4039 270.909C66.2912 272.363 68.1979 272.94 69.7737 272.171L70.2015 271.924C75.3009 269.116 78.1079 263.415 77.2 257.743Z" fill="white"/>
<path d="M40.4733 180.819C40.4166 180.792 40.3659 180.753 40.3241 180.706C40.2823 180.659 40.2502 180.604 40.2297 180.544C40.2092 180.484 40.2006 180.421 40.2045 180.358C40.2084 180.295 40.2246 180.233 40.2523 180.176L46.1931 167.944C46.2196 167.885 46.2575 167.832 46.3047 167.789C46.3519 167.745 46.4074 167.711 46.4678 167.689C46.5283 167.667 46.5926 167.657 46.6568 167.66C46.721 167.663 46.7838 167.68 46.8416 167.708C46.8994 167.736 46.951 167.775 46.9932 167.824C47.0355 167.872 47.0676 167.928 47.0876 167.99C47.1077 168.051 47.1152 168.115 47.1099 168.18C47.1046 168.244 47.0865 168.306 47.0566 168.364L41.1158 180.595C41.0882 180.652 41.0497 180.703 41.0024 180.746C40.9552 180.788 40.9001 180.82 40.8405 180.841C40.7808 180.862 40.7176 180.87 40.6546 180.867C40.5916 180.863 40.53 180.847 40.4733 180.819Z" fill="white"/>
<path d="M47.42 176.635L39.4678 172.772C39.3533 172.717 39.2656 172.618 39.2241 172.497C39.1825 172.377 39.1906 172.244 39.2464 172.129C39.3023 172.014 39.4014 171.926 39.5219 171.884C39.6424 171.842 39.7744 171.85 39.889 171.905L47.8412 175.768C47.9557 175.823 48.0434 175.922 48.0849 176.043C48.1264 176.164 48.1184 176.296 48.0625 176.411C48.0067 176.526 47.9076 176.614 47.7871 176.656C47.6666 176.698 47.5346 176.69 47.42 176.635V176.635Z" fill="white"/>
<path d="M208.051 216.418C207.994 216.39 207.943 216.352 207.901 216.305C207.859 216.258 207.827 216.202 207.807 216.143C207.786 216.083 207.777 216.02 207.781 215.957C207.785 215.893 207.801 215.832 207.829 215.775L212.348 206.471C212.403 206.356 212.502 206.268 212.623 206.226C212.743 206.184 212.875 206.192 212.99 206.248C213.105 206.303 213.192 206.402 213.234 206.523C213.275 206.644 213.267 206.776 213.211 206.891L208.693 216.194C208.665 216.251 208.627 216.302 208.58 216.344C208.532 216.386 208.477 216.419 208.418 216.439C208.358 216.46 208.295 216.469 208.232 216.465C208.169 216.462 208.107 216.446 208.051 216.418Z" fill="white"/>
<path d="M213.334 213.235L207.286 210.298C207.229 210.27 207.178 210.232 207.136 210.185C207.095 210.137 207.062 210.082 207.042 210.023C207.021 209.963 207.013 209.9 207.017 209.836C207.02 209.773 207.037 209.711 207.064 209.655C207.092 209.598 207.131 209.547 207.178 209.505C207.225 209.463 207.28 209.43 207.34 209.409C207.399 209.389 207.463 209.38 207.526 209.383C207.589 209.387 207.65 209.403 207.707 209.431L213.755 212.368C213.87 212.424 213.957 212.523 213.999 212.644C214.04 212.764 214.032 212.897 213.977 213.012C213.921 213.127 213.822 213.215 213.701 213.257C213.581 213.299 213.449 213.291 213.334 213.235Z" fill="white"/>
</g>
</g>
<defs>
<linearGradient id="paint0_linear_135_36007" x1="-25.9723" y1="107" x2="1207.71" y2="107" gradientUnits="userSpaceOnUse">
<stop stop-color="#003CEF"/>
<stop offset="1" stop-color="#13A7DA"/>
</linearGradient>
<clipPath id="clip0_135_36007">
<rect width="1172" height="214" rx="24" fill="white"/>
</clipPath>
<clipPath id="clip1_135_36007">
<rect width="272.068" height="301.883" fill="white" transform="translate(17.8867 -6) rotate(25.9049)"/>
</clipPath>
</defs>
</svg>
