<svg width="28" height="24" viewBox="0 0 28 24" fill="none" xmlns="http://www.w3.org/2000/svg">
<path fill-rule="evenodd" clip-rule="evenodd" d="M5.99984 24C3.05432 24 0.666504 21.6122 0.666504 18.6667V17.3333C0.666504 16.597 1.27984 16.0218 1.9757 15.7808C3.54188 15.2386 4.6665 13.7506 4.6665 12C4.6665 10.2494 3.54188 8.7614 1.9757 8.21916C1.27984 7.97825 0.666504 7.40305 0.666504 6.66667V5.33333C0.666504 2.38781 3.05432 0 5.99984 0H21.9998C24.9454 0 27.3332 2.38781 27.3332 5.33333V6.66667C27.3332 7.40305 26.7198 7.97825 26.024 8.21916C24.4578 8.7614 23.3332 10.2494 23.3332 12C23.3332 13.7506 24.4578 15.2386 26.024 15.7808C26.7198 16.0218 27.3332 16.597 27.3332 17.3333V18.6667C27.3332 21.6122 24.9454 24 21.9998 24H5.99984ZM9.99984 9.33333C10.7362 9.33333 11.3332 8.73638 11.3332 8C11.3332 7.26362 10.7362 6.66667 9.99984 6.66667C9.26346 6.66667 8.6665 7.26362 8.6665 8C8.6665 8.73638 9.26346 9.33333 9.99984 9.33333ZM19.3332 16C19.3332 16.7364 18.7362 17.3333 17.9998 17.3333C17.2635 17.3333 16.6665 16.7364 16.6665 16C16.6665 15.2636 17.2635 14.6667 17.9998 14.6667C18.7362 14.6667 19.3332 15.2636 19.3332 16ZM18.7069 8.70711C19.0975 8.31658 19.0975 7.68342 18.7069 7.29289C18.3164 6.90237 17.6833 6.90237 17.2927 7.29289L9.29273 15.2929C8.90221 15.6834 8.90221 16.3166 9.29273 16.7071C9.68326 17.0976 10.3164 17.0976 10.7069 16.7071L18.7069 8.70711Z" fill="#28303F"/>
</svg>
