<svg width="32" height="32" viewBox="0 0 32 32" fill="none" xmlns="http://www.w3.org/2000/svg">
<path fill-rule="evenodd" clip-rule="evenodd" d="M22.3327 2.66675C22.3327 2.11446 21.885 1.66675 21.3327 1.66675C20.7804 1.66675 20.3327 2.11446 20.3327 2.66675V4.66675H11.666V2.66675C11.666 2.11446 11.2183 1.66675 10.666 1.66675C10.1137 1.66675 9.66602 2.11446 9.66602 2.66675V4.66675H9.33333C6.38781 4.66675 4 7.05456 4 10.0001V24.0001C4 26.9456 6.38781 29.3334 9.33333 29.3334H22.6667C25.6122 29.3334 28 26.9456 28 24.0001V10.0001C28 7.05456 25.6122 4.66675 22.6667 4.66675H22.3327V2.66675ZM10.6667 11.0001C10.1144 11.0001 9.66667 11.4478 9.66667 12.0001C9.66667 12.5524 10.1144 13.0001 10.6667 13.0001H16C16.5523 13.0001 17 12.5524 17 12.0001C17 11.4478 16.5523 11.0001 16 11.0001H10.6667ZM9.66667 17.3334C9.66667 16.7811 10.1144 16.3334 10.6667 16.3334H21.3333C21.8856 16.3334 22.3333 16.7811 22.3333 17.3334C22.3333 17.8857 21.8856 18.3334 21.3333 18.3334H10.6667C10.1144 18.3334 9.66667 17.8857 9.66667 17.3334ZM10.6667 21.6667C10.1144 21.6667 9.66667 22.1145 9.66667 22.6667C9.66667 23.219 10.1144 23.6667 10.6667 23.6667H21.3333C21.8856 23.6667 22.3333 23.219 22.3333 22.6667C22.3333 22.1145 21.8856 21.6667 21.3333 21.6667H10.6667Z" fill="#1C1C1E"/>
</svg>
