<svg width="28" height="28" viewBox="0 0 28 28" fill="none" xmlns="http://www.w3.org/2000/svg">
<path fill-rule="evenodd" clip-rule="evenodd" d="M14.9998 1.66669C14.9998 1.1144 14.5521 0.666687 13.9998 0.666687C13.4476 0.666687 12.9998 1.1144 12.9998 1.66669V4.33335C12.9998 4.88564 13.4476 5.33335 13.9998 5.33335C14.5521 5.33335 14.9998 4.88564 14.9998 4.33335V1.66669ZM2.70694 4.95958C2.31642 4.56906 1.68325 4.56906 1.29273 4.95958C0.902206 5.3501 0.902206 5.98327 1.29273 6.37379L3.29273 8.37379C3.68325 8.76432 4.31642 8.76432 4.70694 8.37379C5.09747 7.98327 5.09747 7.3501 4.70694 6.95958L2.70694 4.95958ZM26.7069 6.37379C27.0975 5.98327 27.0975 5.3501 26.7069 4.95958C26.3164 4.56906 25.6833 4.56906 25.2927 4.95958L23.2927 6.95958C22.9022 7.3501 22.9022 7.98327 23.2927 8.37379C23.6833 8.76432 24.3164 8.76432 24.7069 8.37379L26.7069 6.37379ZM13.9998 8.66669C18.8054 8.66669 23.0844 11.794 25.8361 14.4282C27.8322 16.339 27.8322 19.6611 25.8361 21.5719C23.0844 24.206 18.8054 27.3334 13.9998 27.3334C9.19423 27.3334 4.91532 24.206 2.16358 21.5719C0.167479 19.6611 0.167479 16.339 2.16358 14.4282C4.91532 11.794 9.19423 8.66669 13.9998 8.66669ZM17.9998 18C17.9998 20.2092 16.2089 22 13.9998 22C11.7907 22 9.9998 20.2092 9.9998 18C9.9998 15.7909 11.7907 14 13.9998 14C16.2089 14 17.9998 15.7909 17.9998 18Z" fill="#28303F"/>
</svg>
