<svg width="16" height="16" viewBox="0 0 16 16" fill="none" xmlns="http://www.w3.org/2000/svg">
<path d="M9.0785 14.2448C8.78937 14.5155 8.40293 14.6668 8.00075 14.6668C7.59856 14.6668 7.21212 14.5155 6.92299 14.2448C4.27535 11.7508 0.727175 8.96478 2.45751 4.91994C3.39309 2.73293 5.6389 1.3335 8.00075 1.3335C10.3626 1.3335 12.6084 2.73293 13.544 4.91994C15.2721 8.95968 11.7327 11.7594 9.0785 14.2448Z" stroke="#1C1C1E"/>
<path d="M10.3332 7.33333C10.3332 8.622 9.2885 9.66667 7.99984 9.66667C6.71117 9.66667 5.6665 8.622 5.6665 7.33333C5.6665 6.04467 6.71117 5 7.99984 5C9.2885 5 10.3332 6.04467 10.3332 7.33333Z" stroke="#1C1C1E"/>
</svg>
