<svg width="32" height="32" viewBox="0 0 32 32" fill="none" xmlns="http://www.w3.org/2000/svg">
<path d="M13.3769 4.36196C14.4498 2.10168 17.5498 2.10167 18.6228 4.36196L20.477 8.26832C20.9031 9.16588 21.7266 9.788 22.6793 9.93193L26.8256 10.5583C29.2247 10.9208 30.1827 13.9861 28.4467 15.7455L25.4464 18.7862C24.757 19.4849 24.4424 20.4915 24.6052 21.478L25.3135 25.7715C25.7233 28.2558 23.2153 30.1503 21.0695 28.9773L17.3609 26.9502C16.5088 26.4845 15.4908 26.4845 14.6387 26.9502L10.9302 28.9773C8.78436 30.1503 6.2764 28.2558 6.68622 25.7715L7.39449 21.478C7.55723 20.4915 7.24265 19.4849 6.55328 18.7862L3.553 15.7455C1.81699 13.9861 2.77494 10.9208 5.17405 10.5583L9.32033 9.93193C10.273 9.788 11.0966 9.16588 11.5226 8.26832L13.3769 4.36196Z" fill="#1C1C1E"/>
</svg>
