<svg width="28" height="28" viewBox="0 0 28 28" fill="none" xmlns="http://www.w3.org/2000/svg">
<path fill-rule="evenodd" clip-rule="evenodd" d="M13.9998 27.3334C21.3636 27.3334 27.3332 21.3638 27.3332 14C27.3332 6.63622 21.3636 0.666687 13.9998 0.666687C6.63604 0.666687 0.666504 6.63622 0.666504 14C0.666504 21.3638 6.63604 27.3334 13.9998 27.3334ZM20.1225 10.614C20.4616 10.1781 20.3831 9.54978 19.9471 9.21071C19.5112 8.87164 18.8829 8.95018 18.5438 9.38613L13.2012 16.2553C13.0824 16.408 12.8589 16.4278 12.7151 16.2984L9.33548 13.2568C8.92497 12.8873 8.29268 12.9206 7.92322 13.3311C7.55376 13.7416 7.58704 14.3739 7.99755 14.7434L11.3771 17.785C12.384 18.6911 13.9482 18.5524 14.7799 17.4832L20.1225 10.614Z" fill="#28303F"/>
</svg>
