<svg width="281" height="273" viewBox="0 0 281 273" fill="none" xmlns="http://www.w3.org/2000/svg">
<path d="M79.4627 88.686C79.2522 88.6626 79.1236 88.5109 79.147 88.3358C79.2171 87.6237 79.2522 86.8999 79.2522 86.1761C79.2522 85.1488 79.1821 84.0865 79.0301 83.0358C79.0067 82.8607 79.1236 82.6973 79.299 82.674C79.4744 82.6506 79.638 82.7674 79.6614 82.9425C79.8134 84.0281 79.8952 85.1138 79.8952 86.1761C79.8952 86.9232 79.8601 87.6704 79.7783 88.3941C79.7666 88.5576 79.6263 88.686 79.4627 88.686ZM77.8961 77.6659C77.7675 77.6659 77.6389 77.5842 77.5921 77.4558C76.9608 75.7397 76.1308 73.977 75.1371 72.2259C75.0435 72.0741 75.102 71.8757 75.254 71.794C75.4059 71.7122 75.6047 71.7589 75.6865 71.9107C76.7036 73.6968 77.5454 75.4946 78.1884 77.234C78.2468 77.3974 78.165 77.5842 78.0013 77.6425C77.9662 77.6542 77.9312 77.6659 77.8961 77.6659ZM72.226 67.498C72.1325 67.498 72.0273 67.4513 71.9688 67.3696C70.8699 65.8753 69.6307 64.3577 68.2979 62.8635C68.181 62.7351 68.1927 62.525 68.3213 62.4082C68.4499 62.2915 68.6603 62.3031 68.7773 62.4316C70.1334 63.9492 71.3726 65.4784 72.4832 66.9844C72.5885 67.1244 72.5534 67.3229 72.4131 67.428C72.3546 67.4746 72.2845 67.4863 72.226 67.4863V67.498ZM64.475 58.7543C64.3932 58.7543 64.3114 58.7193 64.2529 58.6609C62.8968 57.3534 61.4471 56.0343 59.9273 54.7502C59.787 54.6334 59.7753 54.435 59.8922 54.2949C60.0091 54.1548 60.2079 54.1431 60.3482 54.2599C61.868 55.5557 63.341 56.8865 64.6972 58.2056C64.8258 58.3341 64.8258 58.5325 64.6972 58.6609C64.6387 58.731 64.5452 58.7543 64.4633 58.7543H64.475ZM55.5666 51.1663C55.4965 51.1663 55.4263 51.143 55.3679 51.0963C52.5504 48.9716 50.6097 47.7342 50.598 47.7225C50.446 47.6292 50.3993 47.4307 50.5045 47.2789C50.598 47.1272 50.7968 47.0922 50.9488 47.1855C50.9721 47.1972 52.9245 48.4347 55.7654 50.5826C55.9057 50.6877 55.929 50.8862 55.8238 51.0262C55.7654 51.108 55.6601 51.1546 55.5666 51.1546V51.1663Z" fill="#CFCFE2"/>
<path d="M108.76 126.042C108.631 126.042 108.503 125.961 108.456 125.832C107.813 124.058 107.252 122.167 106.784 120.205C106.737 120.03 106.854 119.855 107.018 119.82C107.193 119.785 107.357 119.89 107.404 120.054C107.871 121.991 108.421 123.859 109.052 125.61C109.11 125.774 109.029 125.961 108.865 126.019C108.83 126.031 108.795 126.042 108.76 126.042ZM106.001 114.719C105.849 114.719 105.708 114.602 105.685 114.45C105.416 112.582 105.206 110.621 105.077 108.625C105.065 108.45 105.194 108.298 105.369 108.286C105.545 108.275 105.697 108.403 105.708 108.578C105.849 110.563 106.047 112.512 106.316 114.357C106.34 114.532 106.223 114.695 106.047 114.719C106.036 114.719 106.012 114.719 106.001 114.719ZM105.182 103.08C105.007 103.08 104.867 102.94 104.867 102.765V102.321C104.867 100.57 104.913 98.7488 105.007 96.9044C105.007 96.7293 105.124 96.6009 105.346 96.6009C105.521 96.6009 105.662 96.7643 105.65 96.9394C105.556 98.7722 105.51 100.582 105.51 102.321V102.765C105.51 102.94 105.369 103.08 105.194 103.092L105.182 103.08ZM105.755 91.4177C105.545 91.3943 105.416 91.2426 105.44 91.0675C105.627 89.1763 105.86 87.2268 106.129 85.2539C106.153 85.0788 106.316 84.9504 106.492 84.9854C106.667 85.0088 106.784 85.1722 106.761 85.3473C106.48 87.3085 106.246 89.258 106.071 91.1375C106.059 91.3009 105.919 91.4294 105.755 91.4294V91.4177ZM107.38 79.8489C107.146 79.8139 107.03 79.6505 107.065 79.4754C107.404 77.5842 107.789 75.6464 108.21 73.7319C108.245 73.5567 108.421 73.4517 108.596 73.4867C108.771 73.5217 108.877 73.6968 108.842 73.8719C108.421 75.7748 108.047 77.7009 107.696 79.5921C107.673 79.7439 107.532 79.8606 107.38 79.8606V79.8489ZM109.882 68.4436C109.882 68.4436 109.824 68.4436 109.8 68.4436C109.625 68.3969 109.52 68.2218 109.566 68.0584C110.478 64.5562 111.156 62.4316 111.168 62.4082C111.227 62.2448 111.402 62.1514 111.577 62.1981C111.741 62.2565 111.834 62.4316 111.788 62.6067C111.788 62.6301 111.098 64.7313 110.198 68.2101C110.163 68.3502 110.034 68.4553 109.882 68.4553V68.4436Z" fill="#CFCFE2"/>
<path d="M150.472 63.5173C150.472 63.5173 150.414 63.5173 150.39 63.5056C150.215 63.4589 150.121 63.2838 150.168 63.1087C150.694 61.2059 151.361 59.3497 152.132 57.5753C152.202 57.4119 152.401 57.3418 152.553 57.4119C152.717 57.4819 152.787 57.6687 152.717 57.8321C151.957 59.5832 151.302 61.416 150.788 63.2838C150.753 63.4239 150.624 63.5173 150.484 63.5173H150.472ZM155.137 52.8708C155.137 52.8708 155.02 52.8591 154.973 52.8241C154.821 52.7307 154.774 52.5322 154.868 52.3804C155.897 50.7344 157.054 49.1351 158.328 47.6292C158.445 47.5008 158.644 47.4774 158.784 47.5942C158.925 47.7109 158.936 47.9094 158.819 48.0495C157.569 49.532 156.423 51.108 155.417 52.7307C155.359 52.8241 155.254 52.8824 155.149 52.8824L155.137 52.8708ZM162.631 43.9636C162.549 43.9636 162.455 43.9286 162.397 43.8586C162.28 43.7301 162.292 43.52 162.42 43.4033C163.835 42.1192 165.378 40.8817 167.015 39.726C167.155 39.621 167.354 39.656 167.459 39.8077C167.564 39.9478 167.529 40.1463 167.377 40.2513C165.775 41.3837 164.244 42.6095 162.853 43.8702C162.794 43.9286 162.712 43.952 162.642 43.952L162.631 43.9636ZM172.147 37.2162C172.03 37.2162 171.925 37.1578 171.866 37.0527C171.785 36.901 171.831 36.7025 171.995 36.6208C173.678 35.6869 175.455 34.8113 177.279 34.0292C177.443 33.9592 177.63 34.0292 177.7 34.1926C177.77 34.3561 177.7 34.5429 177.536 34.6129C175.736 35.3834 173.982 36.2472 172.311 37.1695C172.264 37.1928 172.205 37.2045 172.159 37.2045L172.147 37.2162ZM182.879 32.5816C182.739 32.5816 182.622 32.4999 182.575 32.3598C182.517 32.1964 182.61 32.0096 182.786 31.9629C186.199 30.8656 188.479 30.4687 188.502 30.4687C188.689 30.4337 188.841 30.5621 188.877 30.7255C188.912 30.9006 188.783 31.0641 188.619 31.0991C188.596 31.0991 186.351 31.496 182.984 32.57C182.949 32.57 182.914 32.5816 182.891 32.5816H182.879Z" fill="#CFCFE2"/>
<path d="M46.4592 29.0912C47.4646 33.4572 47.1723 37.8349 45.8512 41.7923C43.3377 49.2869 37.0831 55.3456 28.7943 57.2368C21.8851 58.8244 14.9875 57.1901 9.67985 53.326C5.24903 50.1157 1.92884 45.3411 0.607774 39.5976C-2.30324 26.9549 5.59975 14.3588 18.2609 11.452C30.9221 8.54526 43.5482 16.4484 46.4592 29.0912Z" fill="white"/>
<path d="M24.667 27.7604C24.667 27.7604 27.9053 25.2038 28.9575 27.9588C30.1734 31.1575 26.2569 32.2431 26.2569 32.2431L24.667 27.7487V27.7604Z" fill="#FC8165"/>
<path d="M27.2395 30.2585C27.2395 30.2585 27.1927 30.2585 27.1693 30.2585C27.0407 30.2235 26.9589 30.0834 26.994 29.955L27.6487 27.5269C27.6837 27.3985 27.8123 27.3167 27.9526 27.3518C28.0812 27.3868 28.1631 27.5269 28.128 27.6553L27.4733 30.0834C27.4382 30.2002 27.3447 30.2702 27.2278 30.2702L27.2395 30.2585Z" fill="black"/>
<path d="M27.4382 29.5115C27.3213 29.5115 27.2277 29.4414 27.1927 29.3247C27.1576 29.1846 27.2394 29.0562 27.3797 29.0212L28.4319 28.7527C28.5605 28.7176 28.7008 28.7994 28.7359 28.9394C28.7709 29.0795 28.6891 29.2079 28.5488 29.243L27.4966 29.5115C27.4966 29.5115 27.4499 29.5115 27.4382 29.5115Z" fill="black"/>
<path d="M45.8516 41.7923C44.9397 44.4889 43.5602 46.9988 41.7598 49.1935C41.6429 49.3452 41.526 49.4853 41.3974 49.6254C38.2409 53.326 33.9036 56.0694 28.7947 57.2484C25.7317 57.9488 22.6687 58.0189 19.746 57.5403C19.5823 57.5169 19.4069 57.4819 19.2433 57.4469C15.7594 56.8048 12.4977 55.3806 9.68018 53.326C9.94906 50.2675 11.0363 47.1622 13.7018 44.7341C20.5059 38.5586 32.1967 35.8737 37.972 37.1461C41.5143 37.9282 44.2499 40.1579 45.8633 41.7806L45.8516 41.7923Z" fill="#AEAAF7"/>
<path d="M25.4044 24.1415C25.4044 24.1415 26.9125 19.7171 26.0474 18.1761C25.1823 16.6352 23.3936 18.7482 23.3936 18.7482C23.3936 18.7482 22.0842 15.3044 19.5824 16.6002C16.2622 18.3279 14.1812 25.3555 14.1812 25.3555C14.1812 25.3555 12.2756 25.3205 12.0301 27.0366C11.7378 29.0328 12.8368 30.9473 14.3917 32.5233C15.9465 34.0992 18.6705 31.8812 18.6705 31.8812L25.3927 24.1531L25.4044 24.1415Z" fill="black"/>
<path d="M20.5171 37.0644L21.616 41.2787C21.616 41.2787 23.3813 41.7339 25.2869 41.2553C27.8706 40.6016 28.4434 39.2708 28.4434 39.2708L26.947 33.8191L20.5054 37.0644H20.5171Z" fill="#FC8165"/>
<path d="M20.4941 36.9593C20.4941 36.9593 22.8674 39.7727 25.6732 38.547C27.9295 37.5547 27.0644 34.2393 27.0644 34.2393L20.4941 36.9593Z" fill="black"/>
<path d="M25.4038 24.1415C25.4038 24.1415 28.3967 31.2158 27.742 34.4028C27.0055 37.975 23.1241 38.4069 21.5575 37.7648C19.4298 36.8893 18.1672 34.9748 18.1672 34.9748C18.1672 34.9748 15.8758 36.1071 14.5431 34.3561C13.1402 32.5116 14.1923 30.4453 15.3731 30.0134C16.5539 29.5815 16.7526 29.7683 16.7526 29.7683L15.794 27.6553C15.794 27.6553 20.9379 17.5107 25.4038 24.1415Z" fill="#FC8165"/>
<path d="M16.7526 29.7683C16.7526 29.7683 18.3426 29.4647 19.8039 27.6319C21.5108 25.484 20.5522 22.8223 20.5522 22.8223C20.5522 22.8223 24.8661 24.1298 26.4794 26.7914C28.0927 29.4531 25.8247 19.6937 21.6979 21.0129C17.571 22.332 12.5673 26.3712 16.7526 29.7799V29.7683Z" fill="black"/>
<path d="M17.1624 33.0953C17.1624 33.0953 17.0923 33.0953 17.0572 33.072L14.7541 31.9746C14.6255 31.9163 14.5787 31.7645 14.6372 31.6361C14.6956 31.5077 14.8476 31.461 14.9762 31.5194L17.2793 32.6167C17.4079 32.6751 17.4547 32.8268 17.3962 32.9552C17.3495 33.0486 17.2559 33.0953 17.1624 33.0953Z" fill="black"/>
<path d="M15.5131 33.8658C15.5131 33.8658 15.4079 33.8541 15.3611 33.8074C15.2559 33.7257 15.2325 33.5622 15.3143 33.4572L16.1912 32.3365C16.273 32.2314 16.4367 32.2081 16.5419 32.2898C16.6471 32.3715 16.6705 32.5349 16.5886 32.64L15.7118 33.7607C15.6651 33.8191 15.5832 33.8541 15.5131 33.8541V33.8658Z" fill="black"/>
<path d="M20.6926 30.0134C20.5874 30.0134 20.4939 29.9434 20.4471 29.8383L20.0613 28.6709C20.0145 28.5425 20.0847 28.3907 20.225 28.3557C20.3536 28.309 20.5056 28.3791 20.5406 28.5191L20.9264 29.6865C20.9732 29.8149 20.903 29.9667 20.7628 30.0017C20.7394 30.0017 20.7043 30.0134 20.6809 30.0134H20.6926Z" fill="black"/>
<path d="M25.2986 28.776C25.1933 28.776 25.0998 28.7059 25.0531 28.6009L24.6673 27.4335C24.6205 27.3051 24.6906 27.1533 24.8309 27.1183C24.9595 27.0716 25.1115 27.1416 25.1466 27.2817L25.5324 28.4491C25.5791 28.5775 25.509 28.7293 25.3687 28.7643C25.3453 28.7643 25.3103 28.776 25.2869 28.776H25.2986Z" fill="black"/>
<path d="M24.2819 32.1147C24.1533 32.1147 24.0364 32.0096 24.0364 31.8812C23.9078 30.0484 22.9491 28.776 22.9491 28.7526C22.8673 28.6359 22.8907 28.4841 22.9959 28.4024C23.1011 28.3207 23.2648 28.344 23.3466 28.4491C23.3934 28.5075 24.3988 29.8616 24.5391 31.8462C24.5391 31.9863 24.4455 32.103 24.3052 32.1147C24.3052 32.1147 24.3052 32.1147 24.2936 32.1147H24.2819Z" fill="black"/>
<path d="M25.135 26.1844C25.135 26.1844 25.0648 26.1844 25.0298 26.1611C24.5621 25.9393 23.8607 26.126 23.849 26.1377C23.7087 26.1727 23.5684 26.1027 23.5334 25.9626C23.4983 25.8342 23.5684 25.6941 23.7087 25.6474C23.7438 25.6474 24.6089 25.4023 25.2402 25.7058C25.3688 25.7642 25.4156 25.9159 25.3571 26.0443C25.3104 26.1377 25.2285 26.1844 25.135 26.1844Z" fill="black"/>
<path d="M19.7344 27.6202C19.7344 27.6202 19.6175 27.5969 19.5707 27.5619C19.4655 27.4685 19.4421 27.3167 19.5356 27.2117C19.9916 26.663 20.8684 26.5112 20.9035 26.5112C21.0554 26.4996 21.1724 26.5813 21.1957 26.7214C21.2191 26.8614 21.1256 26.9899 20.9853 27.0132C20.9853 27.0132 20.2605 27.1299 19.9331 27.5385C19.8864 27.5969 19.8162 27.6319 19.7344 27.6319V27.6202Z" fill="black"/>
<path d="M16.1916 29.9317C16.1916 29.9317 17.536 31.8929 17.7932 31.7295C18.0504 31.566 16.6475 28.274 15.7941 28.3557C14.9407 28.4375 16.1916 29.9317 16.1916 29.9317Z" fill="black"/>
<path d="M23.5213 34.216C23.0069 34.216 22.6445 33.9475 22.5042 33.7257C22.4224 33.6089 22.4574 33.4572 22.5627 33.3755C22.6796 33.2937 22.8315 33.3171 22.9134 33.4338C22.9601 33.4922 23.3459 33.9708 24.1994 33.5156C24.328 33.4455 24.4799 33.4922 24.5384 33.6206C24.6085 33.7374 24.5618 33.9008 24.4332 33.9592C24.0942 34.1459 23.7785 34.216 23.5213 34.216Z" fill="black"/>
<path d="M28.2333 38.4419C28.2333 38.4419 31.9626 42.9947 31.3313 43.0647C30.7 43.1348 26.2809 41.2203 26.2809 41.2203C26.2809 41.2203 24.0596 45.2361 23.2062 45.4929C22.3528 45.7497 21.2305 39.8311 21.2305 39.8311C21.2305 39.8311 22.306 41.5822 25.5444 40.8117C28.8646 40.0179 28.2333 38.4419 28.2333 38.4419Z" fill="#8758E7"/>
<path d="M140.43 33.819C140.021 36.9476 139.015 39.8544 137.531 42.4226C136.443 44.3138 135.111 46.0299 133.579 47.5241C130.048 50.9796 125.466 53.3026 120.427 54.0264C118.358 54.3299 116.206 54.3416 114.044 54.0614C113.214 53.9564 112.407 53.8046 111.612 53.6178C111.098 53.4894 110.583 53.3493 110.08 53.1976C109.519 53.0225 108.982 52.824 108.444 52.6139C108.339 52.5789 108.233 52.5322 108.14 52.4972C107.275 52.1469 106.445 51.7383 105.638 51.2947C104.223 50.5126 102.902 49.5787 101.698 48.528C101.324 48.2012 100.95 47.8626 100.599 47.5241C99.8978 46.8353 99.2431 46.0999 98.6235 45.3294C97.1738 43.4966 95.993 41.442 95.1513 39.2474C93.7718 35.6985 93.2457 31.7644 93.7718 27.7253C95.4553 14.8608 107.275 5.80187 120.158 7.4829C133.041 9.16393 142.113 20.9545 140.43 33.8307V33.819Z" fill="white"/>
<path d="M112.746 19.4252C112.746 19.4252 110.267 21.0012 109.811 22.8573L109.356 24.7018C109.356 24.7018 106.573 25.2038 105.334 28.3324C103.662 32.57 106.456 34.4845 106.456 34.4845L129.359 40.0295C129.359 40.0295 132.398 37.9983 132.363 34.0876C132.328 30.1768 130.235 28.6592 130.235 28.6592C130.235 28.6592 130.925 26.2427 130.013 23.5928C128.949 20.5459 126.003 20.1257 126.003 20.1257L112.746 19.4252Z" fill="black"/>
<path d="M133.591 47.5357C130.061 50.9912 125.478 53.3143 120.439 54.038C118.37 54.3416 116.219 54.3532 114.056 54.0731C113.226 53.968 112.419 53.8162 111.624 53.6295C111.11 53.501 110.595 53.361 110.093 53.2092C109.532 53.0341 108.994 52.8356 108.456 52.6255C108.351 52.5905 108.246 52.5438 108.152 52.5088C107.287 52.1586 106.457 51.75 105.65 51.3064C104.236 50.5242 102.915 49.5903 101.71 48.5397C101.921 47.3022 102.096 46.6135 102.096 46.6135L107.416 35.2432L107.942 34.1225C108.257 33.4571 108.783 32.9318 109.426 32.6166C109.754 32.4531 110.128 32.3481 110.502 32.3131C111.215 32.243 112.092 32.1847 113.097 32.1496C113.413 32.1496 113.717 32.138 114.056 32.1263C115.085 32.1263 116.207 32.1496 117.364 32.2547C118.054 32.3131 118.756 32.3948 119.445 32.5115C119.749 32.5582 120.065 32.6166 120.369 32.675C120.72 32.7567 121.07 32.8384 121.433 32.9201C121.83 33.0252 122.216 33.1302 122.602 33.2703C123.479 33.5622 124.332 33.9124 125.127 34.3443C127.232 35.5 128.927 37.5313 130.248 39.7259C131.931 42.5277 133.03 45.6212 133.615 47.5474L133.591 47.5357Z" fill="#FFAF45"/>
<path d="M120.567 31.5544C120.567 31.5544 122.133 32.3015 122.531 33.1303C122.975 34.0526 121.642 36.1539 118.462 37.5197C116.136 38.512 114.254 38.7221 114.254 38.7221C114.254 38.7221 112.711 35.8854 112.559 34.251C112.407 32.6284 113.997 30.7255 113.997 30.7255L120.567 31.5544Z" fill="#80BAFF"/>
<path d="M126.81 24.9819C124.203 31.8812 118.217 28.9394 118.217 28.9394C118.217 28.9394 108.759 26.3945 112.968 22.4254C112.968 22.4254 111.401 19.1684 111.612 17.7092C111.752 16.6935 114.195 14.6156 117.329 14.1136C117.644 14.0669 117.96 14.0319 118.275 14.0086C119.41 13.9502 120.614 14.1136 121.818 14.6273C126.763 16.7402 127.839 22.3086 126.821 24.9936L126.81 24.9819Z" fill="black"/>
<path d="M114.067 30.0951V30.2235L114.149 32.7101L114.207 34.6596C114.207 34.6596 114.032 35.1149 116.312 34.9864C119.363 34.8113 120.357 33.5039 120.357 33.5039L120.532 28.9277L119.608 29.0912L114.055 30.0718L114.067 30.0951Z" fill="#FC8165"/>
<path d="M114.067 30.2235L114.149 32.7101C115.633 32.5466 118.334 31.9279 119.445 29.6048C119.527 29.418 119.585 29.2429 119.608 29.1028L114.067 30.1768V30.2119V30.2235Z" fill="black"/>
<path d="M113.214 18.2928C113.214 18.2928 110.314 24.7485 111.308 28.4024C112.302 32.0563 115.622 31.5193 117.621 30.8305C119.62 30.1418 120.555 28.9394 120.555 28.9394C120.555 28.9394 122.403 29.5814 123.665 27.877C124.928 26.161 124.18 24.1764 123.116 23.7095C122.064 23.2425 120.789 24.0013 120.789 24.0013L121.795 22.1218C121.795 22.1218 117.726 12.5026 113.214 18.3045V18.2928Z" fill="#FC8165"/>
<path d="M113.249 26.3945C113.144 26.3945 113.038 26.3244 113.003 26.2194C112.571 24.8069 113.564 23.3826 113.611 23.3243C113.693 23.2075 113.845 23.1842 113.962 23.2659C114.079 23.3476 114.102 23.4994 114.02 23.6161C114.02 23.6278 113.132 24.9002 113.483 26.0676C113.529 26.196 113.448 26.3361 113.319 26.3828C113.296 26.3828 113.272 26.3828 113.249 26.3828V26.3945Z" fill="black"/>
<path d="M121.058 27.0833C121 27.0833 120.929 27.0599 120.883 27.0132C120.777 26.9198 120.777 26.7564 120.883 26.6513L122.648 24.7835C122.741 24.6784 122.905 24.6784 122.999 24.7835C123.104 24.8769 123.104 25.0403 122.999 25.1454L121.233 27.0132C121.233 27.0132 121.116 27.0949 121.046 27.0949L121.058 27.0833Z" fill="black"/>
<path d="M122.929 26.5929L121.666 26.4062C121.526 26.3828 121.432 26.2544 121.456 26.1143C121.479 25.9742 121.596 25.8925 121.748 25.9042L122.964 26.091C123.104 26.1143 123.198 26.2427 123.174 26.3828C123.151 26.5112 123.046 26.5929 122.929 26.5929Z" fill="black"/>
<path d="M120.789 24.0013C120.789 24.0013 117.96 22.5421 116.943 20.4992C115.926 18.4563 115.891 17.4407 115.891 17.4407C115.891 17.4407 115.47 18.7715 114.441 19.0867C113.412 19.4019 112.769 19.4369 112.769 19.4369L112.103 21.3397L112.547 16.8103C112.547 16.8103 115.353 15.3277 115.727 15.3277C116.101 15.3277 120.824 16.1916 121.105 16.4717C121.374 16.7519 122.859 20.4292 122.859 20.4292L122.952 22.0868L120.801 24.013L120.789 24.0013Z" fill="black"/>
<path d="M120.391 31.8578C120.391 31.8578 116.814 34.4378 114.955 34.2043C113.085 33.9825 113.552 32.4649 113.552 32.4649L113.389 36.0721L114.967 36.8309L119.293 35.7102L121.935 33.4338L120.38 31.8578H120.391Z" fill="#80BAFF"/>
<path d="M116.265 37.1927C116.265 37.1927 117.411 39.2823 117.306 42.3059C117.201 45.3294 115.014 48.458 115.014 48.458C115.014 48.458 112.641 44.9441 112.583 42.5043C112.524 40.0762 114.243 36.8542 114.243 36.8542C114.243 36.8542 112.606 39.5625 112.057 41.2669C111.519 42.9829 110.782 45.1776 110.782 45.1776C110.782 45.1776 109.379 42.7144 109.835 40.0762C110.28 37.4379 113.366 36.0604 113.366 36.0604L116.242 37.1694L116.265 37.1927Z" fill="#80BAFF"/>
<path d="M116.113 38.045C115.318 38.045 114.091 37.5313 113.927 37.4613C113.833 37.4029 113.798 37.3562 113.787 37.2978C113.67 36.8776 113.12 34.7529 113.74 34.0992C113.857 33.9708 114.079 33.8307 114.43 33.9124C114.71 33.9708 114.921 34.1342 115.026 34.3794C115.353 35.1148 114.698 36.5157 114.383 37.0994C114.909 37.2978 115.797 37.6014 116.242 37.5196C116.709 37.4496 117.165 35.932 117.107 35.0331C117.107 34.893 117.2 34.7763 117.341 34.7646C117.504 34.7646 117.598 34.858 117.609 34.9981C117.668 35.8036 117.294 37.8699 116.324 38.0099C116.253 38.0099 116.183 38.0216 116.113 38.0216V38.045ZM114.243 34.4027C114.161 34.4027 114.126 34.4378 114.114 34.4494C113.868 34.7062 113.95 35.6752 114.114 36.5157C114.441 35.8153 114.734 34.9631 114.558 34.5895C114.511 34.4844 114.441 34.4377 114.313 34.4027C114.278 34.4027 114.254 34.4027 114.231 34.4027H114.243Z" fill="white"/>
<path d="M115.271 42.0608C115.271 42.0608 115.212 42.0608 115.177 42.0608C114.967 42.0374 114.791 41.9207 114.674 41.7222C114.113 40.8117 115.107 38.045 115.224 37.7298C115.259 37.6247 115.364 37.5547 115.481 37.5663C115.598 37.5663 115.68 37.6597 115.715 37.7648C115.844 38.3135 116.416 41.1152 115.75 41.8506C115.621 41.9907 115.469 42.0608 115.282 42.0608H115.271ZM115.388 38.8271C115.084 39.8544 114.85 41.0568 115.095 41.4537C115.13 41.5121 115.177 41.5471 115.236 41.5471C115.306 41.5471 115.329 41.5471 115.352 41.5004C115.633 41.1969 115.563 39.9478 115.376 38.8154L115.388 38.8271Z" fill="white"/>
<path d="M108.455 52.6139C108.35 52.5789 108.245 52.5322 108.151 52.4972C107.286 52.147 106.456 51.7384 105.649 51.2948C104.235 50.5126 102.914 49.5787 101.709 48.5281C101.335 48.2012 100.961 47.8627 100.611 47.5241C99.9091 46.8354 99.2544 46.0999 98.6348 45.3295C98.6581 45.2711 98.6815 45.201 98.7049 45.1427C100.739 39.5392 103.627 36.3173 105.895 34.5195C107.952 32.8968 109.776 32.4649 109.776 32.4649C109.753 32.5233 109.46 32.5466 109.437 32.605C109.145 33.2937 108.923 34.3094 108.759 35.5585C108.186 39.8428 108.256 46.8471 108.467 52.6256L108.455 52.6139Z" fill="#FFAF45"/>
<path d="M115.821 24.2465C115.645 24.2115 115.563 24.1064 115.563 23.9897C115.563 23.9313 115.844 22.7172 115.844 22.7172C115.879 22.5771 116.008 22.4954 116.148 22.5304C116.265 22.5538 116.347 22.6588 116.347 22.7756C116.347 22.8339 116.066 24.048 116.066 24.048C116.043 24.1648 115.938 24.2465 115.821 24.2465Z" fill="black"/>
<path d="M112.22 23.6745C112.22 23.6745 112.173 23.6745 112.15 23.6745C112.033 23.6394 111.963 23.5461 111.963 23.4293C111.963 23.406 111.963 23.3826 111.963 23.3593L112.279 22.1569C112.314 22.0168 112.454 21.9467 112.583 21.9818C112.699 22.0168 112.77 22.1102 112.77 22.2269C112.77 22.2503 112.77 22.2736 112.77 22.297L112.454 23.4994C112.419 23.6161 112.325 23.6861 112.208 23.6861L112.22 23.6745Z" fill="black"/>
<path d="M115.166 28.4608C114.512 28.4608 113.904 27.9939 113.88 27.9822C113.81 27.9238 113.775 27.8304 113.787 27.737C113.799 27.6436 113.869 27.5736 113.962 27.5386L115.844 26.9666C115.926 26.9432 116.02 26.9666 116.078 27.0133C116.148 27.0716 116.172 27.1533 116.16 27.2467C116.137 27.3751 115.95 28.4491 115.178 28.4608H115.155H115.166ZM114.675 27.8421C114.827 27.9005 115.003 27.9588 115.178 27.9472C115.33 27.9472 115.459 27.7721 115.541 27.5736L114.664 27.8421H114.675Z" fill="black"/>
<path d="M112.161 21.3514C112.032 21.3514 111.927 21.258 111.915 21.1179C111.904 20.9778 112.009 20.8611 112.149 20.8494L113.295 20.7443C113.459 20.7443 113.552 20.8377 113.564 20.9778C113.576 21.1179 113.47 21.2346 113.33 21.2463L112.184 21.3514C112.184 21.3514 112.173 21.3514 112.161 21.3514Z" fill="black"/>
<path d="M117.189 22.2619C117.189 22.2619 117.118 22.2619 117.083 22.2386L115.388 21.5148C115.26 21.4565 115.201 21.3164 115.26 21.188C115.318 21.0595 115.458 21.0012 115.587 21.0595L117.282 21.7833C117.411 21.8417 117.469 21.9818 117.411 22.1102C117.364 22.2036 117.27 22.2619 117.177 22.2619H117.189Z" fill="black"/>
<path d="M116.101 23.0324C116.031 23.0324 115.972 23.0091 115.914 22.9507L115.54 22.5655C115.446 22.4604 115.446 22.3087 115.54 22.2036C115.645 22.1102 115.797 22.1102 115.902 22.2036L116.276 22.5888C116.37 22.6939 116.37 22.8456 116.276 22.9507C116.23 22.9974 116.159 23.0208 116.101 23.0208V23.0324Z" fill="black"/>
<path d="M112.547 22.4721C112.477 22.4721 112.406 22.4371 112.348 22.3787L112.044 22.0168C111.95 21.9118 111.974 21.7483 112.079 21.6666C112.184 21.5732 112.348 21.5966 112.43 21.7016L112.734 22.0635C112.827 22.1686 112.804 22.332 112.699 22.4137C112.652 22.4487 112.593 22.4721 112.535 22.4721H112.547Z" fill="black"/>
<path d="M240.866 30.0368C239.732 34.6946 237.312 38.7104 234.085 41.8156C233.513 42.3643 232.916 42.878 232.297 43.3683C230.391 44.8625 228.263 46.0766 225.995 46.9521C225.75 47.0455 225.493 47.1389 225.235 47.2323C223.856 47.7109 222.43 48.0728 220.968 48.2946C220.582 48.353 220.197 48.3997 219.811 48.4464C217.099 48.7382 214.293 48.5631 211.487 47.886C211.3 47.8393 211.113 47.7926 210.926 47.7459C208.599 47.1156 206.437 46.1816 204.473 44.9676C201.795 43.3216 199.504 41.1969 197.68 38.7221C197.598 38.617 197.517 38.5003 197.435 38.3835C196.885 37.6131 196.382 36.8076 195.927 35.9787C195.868 35.8737 195.81 35.7686 195.763 35.6635C193.062 30.5971 192.139 24.5501 193.612 18.538C196.792 5.51006 209.944 -2.48651 223.002 0.68877C236.049 3.86405 244.058 16.9971 240.878 30.0251L240.866 30.0368Z" fill="white"/>
<path d="M204.473 44.9676C201.796 43.3216 199.504 41.197 197.68 38.7221C197.599 38.617 197.517 38.5003 197.435 38.3836C196.886 37.6131 196.383 36.8076 195.927 35.9788C195.868 35.8737 195.81 35.7686 195.763 35.6636C199.832 29.313 205.139 24.7602 209.699 25.8809C215.38 27.3051 209.804 37.2629 204.485 44.9676H204.473Z" fill="#EA366E"/>
<path d="M222.839 14.2421C222.839 14.2421 230.041 14.067 233.571 21.4448C237.102 28.8227 232.133 35.6285 224.207 33.4805C216.292 31.3209 216.421 22.7406 216.421 22.7406L222.828 14.2421H222.839Z" fill="black"/>
<path d="M225.224 47.2206C223.844 47.6992 222.418 48.0611 220.957 48.2829C220.571 48.3413 220.185 48.388 219.799 48.4347C217.087 48.7265 214.281 48.5514 211.475 47.8743C211.288 47.8276 211.101 47.7809 210.914 47.7343C205.408 46.2634 200.825 42.9947 197.668 38.7221C199.445 33.5272 201.129 29.4064 202.286 28.3907C204.718 26.2428 207.056 25.7992 209.675 25.8809C211.066 25.9276 212.504 26.126 214.082 26.2778C216.385 26.5113 219.063 27.235 221.389 28.0872C223.704 28.9394 225.668 29.9317 226.638 30.7372C227.445 31.4026 226.592 38.7337 225.2 47.2206H225.224Z" fill="#EA366E"/>
<path d="M211.931 21.188C211.334 22.4137 210.329 23.1492 209.698 22.834C209.055 22.5188 209.031 21.2814 209.628 20.0556C210.224 18.8299 211.229 18.0944 211.861 18.4096C212.504 18.7248 212.527 19.9622 211.931 21.188Z" fill="#80BAFF"/>
<path d="M232.285 43.3683C230.38 44.8625 228.252 46.0766 225.984 46.9521C224.37 47.5708 222.687 48.0261 220.957 48.2946C220.571 48.353 220.185 48.3997 219.799 48.4464L220.232 27.8071C220.232 27.8071 220.676 27.8771 221.413 28.0989C223.786 28.811 230.485 30.352 232.285 43.3799V43.3683Z" fill="#EA366E"/>
<path d="M211.452 16.8337C211.452 16.8337 210.026 14.3238 211.3 11.2069C212.165 9.09393 213.299 8.60363 213.299 8.60363C213.299 8.60363 212.481 5.27659 216.865 6.44397C221.249 7.61135 224.967 8.11332 226.007 12.3859C226.627 14.8958 224.978 19.6471 224.978 19.6471L211.452 16.8337Z" fill="black"/>
<path d="M220.372 22.6473L219.027 28.0172C219.027 28.0172 217.671 29.3247 214.456 28.7877C212.06 28.3908 211.627 27.0016 211.627 27.0016L213.369 22.4371L219.366 22.6006L220.372 22.6239V22.6473Z" fill="#FC8165"/>
<path d="M220.442 22.3204C220.395 22.4605 220.29 22.6239 220.162 22.799C218.291 25.1805 213.767 25.2388 212.387 25.0287L213.369 22.4605L220.442 22.332V22.3204Z" fill="black"/>
<path d="M215.229 9.91109C215.229 9.91109 210.716 15.9465 210.903 19.9622C211.078 23.978 214.656 24.1882 216.889 23.943C219.122 23.6979 220.373 22.6589 220.373 22.6589C220.373 22.6589 222.15 23.7562 223.845 22.2737C225.552 20.7911 225.236 18.5497 224.242 17.8259C223.249 17.1022 221.764 17.5925 221.764 17.5925L223.249 15.8764C223.249 15.8764 221.261 4.94971 215.229 9.92276V9.91109Z" fill="#FC8165"/>
<path d="M221.763 17.5808C221.763 17.5808 218.735 17.5224 217.437 13.8452C216.14 10.1679 216.619 8.89546 216.619 8.89546L213.872 11.7672C213.872 11.7672 213.942 9.36242 215.193 8.10164C216.444 6.84087 217.332 7.35452 217.332 7.35452L223.365 10.378L223.902 15.8647L221.751 17.5808H221.763Z" fill="black"/>
<path d="M213.591 18.5614C213.451 18.5614 213.346 18.4563 213.334 18.3162C213.217 16.752 214.574 15.5145 214.632 15.4562C214.737 15.3628 214.901 15.3628 214.994 15.4795C215.088 15.5846 215.088 15.748 214.971 15.8414C214.971 15.8414 213.743 16.9738 213.849 18.2696C213.849 18.4096 213.755 18.5381 213.615 18.5497C213.615 18.5497 213.603 18.5497 213.591 18.5497V18.5614Z" fill="black"/>
<path d="M221.389 20.8378C221.307 20.8378 221.226 20.8027 221.167 20.721C221.085 20.6043 221.12 20.4408 221.237 20.3591L223.505 18.8415C223.622 18.7598 223.786 18.7948 223.868 18.9116C223.95 19.0283 223.914 19.1917 223.798 19.2735L221.53 20.7911C221.53 20.7911 221.436 20.8378 221.389 20.8378Z" fill="black"/>
<path d="M223.435 20.7561C223.435 20.7561 223.377 20.7561 223.342 20.7327L222.126 20.2541C221.986 20.2074 221.927 20.0557 221.974 19.9156C222.032 19.7755 222.184 19.7171 222.313 19.7638L223.529 20.2424C223.669 20.2891 223.727 20.4409 223.681 20.581C223.634 20.686 223.54 20.7444 223.435 20.7444V20.7561Z" fill="black"/>
<path d="M214.773 12.8179L213.522 12.7595C213.381 12.7595 213.265 12.6311 213.276 12.491C213.276 12.3509 213.393 12.2225 213.545 12.2459L214.784 12.3042C214.925 12.3042 215.042 12.4326 215.03 12.5727C215.03 12.7128 214.913 12.8179 214.773 12.8179Z" fill="black"/>
<path d="M218.326 14.6506C218.326 14.6506 218.209 14.6273 218.162 14.5922L216.42 13.168C216.303 13.0746 216.292 12.9112 216.385 12.8061C216.479 12.6894 216.642 12.6777 216.748 12.7711L218.489 14.1953C218.606 14.2887 218.618 14.4522 218.525 14.5572C218.478 14.6156 218.396 14.6506 218.326 14.6506Z" fill="black"/>
<path d="M212.913 15.5262C212.913 15.5262 212.82 15.5262 212.785 15.4912C212.656 15.4211 212.621 15.2577 212.691 15.141L213.264 14.1253L213.054 13.7051C212.984 13.5767 213.042 13.4249 213.171 13.3549C213.299 13.2965 213.451 13.3432 213.521 13.4716L213.79 14.0086C213.825 14.0903 213.825 14.1837 213.79 14.2537L213.147 15.3861C213.1 15.4678 213.007 15.5145 212.925 15.5145L212.913 15.5262Z" fill="black"/>
<path d="M216.246 16.6119C216.246 16.6119 216.152 16.6119 216.117 16.5768C215.989 16.5068 215.954 16.3434 216.024 16.2266L216.597 15.2227L216.281 14.6273C216.211 14.4989 216.258 14.3471 216.386 14.2771C216.515 14.2071 216.678 14.2538 216.737 14.3822L217.123 15.0943C217.17 15.176 217.158 15.2694 217.123 15.3394L216.48 16.4718C216.433 16.5535 216.339 16.6002 216.258 16.6002L216.246 16.6119Z" fill="black"/>
<path d="M214.41 20.5692C214.13 20.5692 213.849 20.4992 213.639 20.3007C213.533 20.2073 213.522 20.0439 213.615 19.9272C213.709 19.8221 213.872 19.8104 213.989 19.9038C214.445 20.3124 215.603 19.7054 215.977 19.4602C216.094 19.3785 216.257 19.4135 216.339 19.5419C216.421 19.6587 216.386 19.8221 216.269 19.9038C216.14 19.9855 215.229 20.5576 214.422 20.5576L214.41 20.5692Z" fill="black"/>
<path d="M212.001 26.021L209.196 25.8342C209.196 25.8342 208.377 29.4414 213.322 31.1224C218.268 32.8034 222.886 28.6009 222.886 28.6009L217.742 26.663L212.013 26.0093L212.001 26.021Z" fill="#FC8165"/>
<path d="M222.78 24.1531C222.546 25.4956 221.774 26.4762 221.085 26.3478C220.383 26.2194 220.009 25.0403 220.255 23.6979C220.488 22.3554 221.26 21.3748 221.95 21.5032C222.651 21.6316 223.025 22.8107 222.78 24.1531Z" fill="#80BAFF"/>
<path d="M117.107 256.462C116.944 256.462 116.815 256.345 116.792 256.182C116.546 254.279 116.336 252.33 116.16 250.368C116.149 250.193 116.277 250.042 116.453 250.018C116.64 249.983 116.78 250.135 116.803 250.31C116.99 252.26 117.201 254.209 117.435 256.1C117.458 256.275 117.329 256.439 117.154 256.462C117.142 256.462 117.131 256.462 117.119 256.462H117.107ZM116.008 244.835C115.845 244.835 115.704 244.707 115.693 244.531C115.564 242.617 115.471 240.644 115.4 238.695C115.4 238.519 115.529 238.368 115.704 238.368C115.892 238.368 116.032 238.508 116.032 238.671C116.102 240.621 116.207 242.582 116.324 244.496C116.324 244.672 116.207 244.823 116.02 244.835C116.02 244.835 116.008 244.835 115.997 244.835H116.008ZM115.576 233.161C115.4 233.161 115.26 233.021 115.26 232.846C115.249 231.772 115.237 230.721 115.237 229.682C115.237 228.772 115.237 227.873 115.249 226.997C115.249 226.822 115.389 226.682 115.564 226.682C115.74 226.682 115.892 226.834 115.88 227.009C115.88 227.885 115.868 228.783 115.868 229.694C115.868 230.721 115.868 231.772 115.891 232.846C115.891 233.021 115.751 233.173 115.576 233.173V233.161ZM115.693 221.487C115.506 221.487 115.365 221.336 115.377 221.16C115.436 219.223 115.529 217.261 115.634 215.324C115.634 215.148 115.786 214.985 115.973 215.02C116.149 215.02 116.289 215.183 116.277 215.359C116.172 217.296 116.09 219.246 116.02 221.184C116.02 221.359 115.868 221.499 115.704 221.499L115.693 221.487ZM116.336 209.825C116.137 209.814 115.997 209.65 116.02 209.475C116.312 205.833 116.57 203.661 116.57 203.638C116.593 203.463 116.745 203.335 116.932 203.358C117.107 203.381 117.236 203.533 117.213 203.72C117.213 203.743 116.944 205.891 116.663 209.522C116.651 209.685 116.511 209.814 116.347 209.814L116.336 209.825Z" fill="#CFCFE2"/>
<path d="M198.65 75.1444H26.2692C22.4727 75.1444 19.395 78.2176 19.395 82.0086V99.4143C19.395 103.205 22.4727 106.278 26.2692 106.278H198.65C202.447 106.278 205.525 103.205 205.525 99.4143V82.0086C205.525 78.2176 202.447 75.1444 198.65 75.1444Z" fill="#D8D8EF"/>
<path d="M182.434 110.936H42.4837C39.0487 110.936 36.2642 113.717 36.2642 117.147V135.86C36.2642 139.29 39.0487 142.07 42.4837 142.07H182.434C185.869 142.07 188.654 139.29 188.654 135.86V117.147C188.654 113.717 185.869 110.936 182.434 110.936Z" fill="#CACAE5"/>
<path d="M168.243 146.74H56.6654C53.5856 146.74 51.0889 149.233 51.0889 152.308V172.306C51.0889 175.381 53.5856 177.874 56.6654 177.874H168.243C171.322 177.874 173.819 175.381 173.819 172.306V152.308C173.819 149.233 171.322 146.74 168.243 146.74Z" fill="#B6B6CE"/>
<path d="M145.059 182.544H79.8481C77.4591 182.544 75.5225 184.477 75.5225 186.863V209.358C75.5225 211.744 77.4591 213.678 79.8481 213.678H145.059C147.448 213.678 149.385 211.744 149.385 209.358V186.863C149.385 184.477 147.448 182.544 145.059 182.544Z" fill="#9D9DB2"/>
<path d="M140.274 252.531C139.56 256.955 137.64 260.903 134.925 264.076C129.773 270.08 121.696 273.349 113.305 271.992C106.306 270.872 100.532 266.77 97.0717 261.197C94.1768 256.559 92.9002 250.888 93.8406 245.068C95.9078 232.258 107.975 223.547 120.799 225.603C133.623 227.658 142.341 239.72 140.274 252.531Z" fill="white"/>
<path d="M120.589 243.125C120.589 243.125 124.552 241.97 124.488 244.918C124.409 248.339 120.373 247.876 120.373 247.876L120.593 243.114L120.589 243.125Z" fill="#FC8165"/>
<path d="M122.03 246.405C122.03 246.405 121.987 246.388 121.965 246.379C121.86 246.298 121.836 246.138 121.917 246.032L123.438 244.027C123.519 243.921 123.669 243.894 123.786 243.979C123.892 244.06 123.915 244.22 123.834 244.326L122.313 246.331C122.236 246.426 122.123 246.456 122.015 246.412L122.03 246.405Z" fill="black"/>
<path d="M122.495 245.788C122.387 245.744 122.327 245.644 122.338 245.522C122.359 245.379 122.483 245.291 122.626 245.311L123.702 245.457C123.834 245.473 123.933 245.601 123.913 245.744C123.893 245.887 123.769 245.976 123.625 245.955L122.549 245.809C122.549 245.809 122.506 245.792 122.495 245.788Z" fill="black"/>
<path d="M134.932 264.074C133.071 266.231 130.847 268.04 128.352 269.399C128.187 269.496 128.026 269.582 127.854 269.664C123.535 271.91 118.483 272.826 113.305 272.002C110.204 271.502 107.34 270.418 104.812 268.878C104.669 268.795 104.52 268.696 104.382 268.602C101.396 266.7 98.911 264.156 97.075 261.194C98.4767 258.46 100.654 255.989 104.039 254.738C112.669 251.566 124.512 253.464 129.383 256.81C132.37 258.864 134.064 261.958 134.947 264.067L134.932 264.074Z" fill="#AEAAF7"/>
<path d="M122.631 240.046C122.631 240.046 125.695 236.511 125.474 234.758C125.253 233.005 122.8 234.292 122.8 234.292C122.8 234.292 122.885 230.609 120.079 230.872C116.353 231.228 111.777 236.961 111.777 236.961C111.777 236.961 110.025 236.213 109.151 237.712C108.128 239.453 108.425 241.639 109.271 243.683C110.118 245.727 113.477 244.693 113.477 244.693L122.615 240.052L122.631 240.046Z" fill="black"/>
<path d="M113.239 250.189L112.669 254.507C112.669 254.507 114.133 255.592 116.079 255.863C118.718 256.226 119.75 255.207 119.75 255.207L120.418 249.593L113.228 250.184L113.239 250.189Z" fill="#FC8165"/>
<path d="M113.256 250.083C113.256 250.083 114.395 253.581 117.456 253.497C119.92 253.424 120.368 250.026 120.368 250.026L113.256 250.083Z" fill="black"/>
<path d="M122.633 240.045C122.633 240.045 122.739 247.725 120.932 250.433C118.904 253.468 115.146 252.412 113.937 251.229C112.296 249.62 111.847 247.371 111.847 247.371C111.847 247.371 109.298 247.561 108.723 245.438C108.119 243.202 109.872 241.682 111.129 241.725C112.385 241.767 112.499 242.015 112.499 242.015L112.407 239.697C112.407 239.697 120.994 232.224 122.633 240.045Z" fill="#FC8165"/>
<path d="M112.497 242.016C112.497 242.016 114.084 242.331 116.129 241.181C118.519 239.83 118.634 237.003 118.634 237.003C118.634 237.003 122.138 239.834 122.629 242.906C123.121 245.979 124.698 236.081 120.377 235.756C116.057 235.43 109.9 237.297 112.492 242.027L112.497 242.016Z" fill="black"/>
<path d="M111.624 245.25C111.624 245.25 111.559 245.224 111.535 245.189L109.815 243.308C109.718 243.205 109.731 243.047 109.834 242.95C109.937 242.853 110.095 242.867 110.192 242.969L111.912 244.85C112.009 244.953 111.995 245.111 111.893 245.208C111.814 245.277 111.71 245.285 111.624 245.25Z" fill="black"/>
<path d="M109.806 245.346C109.806 245.346 109.713 245.295 109.687 245.235C109.62 245.119 109.66 244.959 109.776 244.892L111.01 244.183C111.126 244.116 111.286 244.156 111.353 244.271C111.419 244.386 111.379 244.546 111.264 244.613L110.03 245.323C109.964 245.359 109.875 245.361 109.81 245.335L109.806 245.346Z" fill="black"/>
<path d="M116.056 243.72C115.958 243.681 115.898 243.581 115.894 243.466L115.977 242.239C115.982 242.102 116.104 241.988 116.247 242.008C116.384 242.013 116.498 242.135 116.478 242.278L116.395 243.505C116.39 243.641 116.268 243.756 116.125 243.736C116.103 243.727 116.066 243.724 116.045 243.716L116.056 243.72Z" fill="black"/>
<path d="M120.789 244.303C120.691 244.263 120.631 244.163 120.628 244.048L120.71 242.822C120.715 242.685 120.837 242.571 120.98 242.591C121.117 242.596 121.231 242.718 121.211 242.861L121.129 244.087C121.124 244.224 121.001 244.338 120.858 244.318C120.837 244.309 120.8 244.307 120.778 244.298L120.789 244.303Z" fill="black"/>
<path d="M118.589 247.015C118.47 246.966 118.402 246.825 118.45 246.706C119.021 244.959 118.613 243.42 118.622 243.399C118.59 243.26 118.669 243.128 118.797 243.092C118.925 243.056 119.068 243.139 119.104 243.267C119.125 243.338 119.547 244.97 118.929 246.862C118.876 246.992 118.745 247.065 118.611 247.023C118.611 247.023 118.611 247.023 118.6 247.019L118.589 247.015Z" fill="black"/>
<path d="M121.614 241.84C121.614 241.84 121.549 241.813 121.526 241.779C121.176 241.398 120.456 241.307 120.441 241.314C120.297 241.294 120.194 241.176 120.214 241.033C120.23 240.901 120.348 240.797 120.495 240.807C120.528 240.82 121.422 240.917 121.892 241.435C121.989 241.538 121.976 241.696 121.873 241.793C121.795 241.862 121.701 241.875 121.614 241.84Z" fill="black"/>
<path d="M116.069 241.143C116.069 241.143 115.969 241.077 115.939 241.027C115.877 240.901 115.912 240.752 116.038 240.69C116.668 240.352 117.537 240.54 117.57 240.553C117.715 240.6 117.792 240.719 117.761 240.858C117.73 240.996 117.595 241.08 117.456 241.049C117.456 241.049 116.741 240.886 116.284 241.142C116.218 241.178 116.14 241.184 116.064 241.154L116.069 241.143Z" fill="black"/>
<path d="M111.916 241.955C111.916 241.955 112.422 244.277 112.722 244.222C113.022 244.167 112.963 240.589 112.142 240.345C111.32 240.1 111.916 241.955 111.916 241.955Z" fill="black"/>
<path d="M117.095 248.677C116.618 248.484 116.384 248.099 116.337 247.84C116.306 247.701 116.395 247.574 116.524 247.538C116.663 247.506 116.795 247.584 116.827 247.723C116.848 247.795 117.025 248.383 117.987 248.282C118.133 248.265 118.256 248.365 118.262 248.506C118.283 248.641 118.178 248.775 118.037 248.781C117.652 248.827 117.333 248.773 117.095 248.677Z" fill="black"/>
<path d="M119.87 254.359C119.87 254.359 121.61 259.979 120.998 259.807C120.387 259.635 117.015 256.202 117.015 256.202C117.015 256.202 113.444 259.092 112.556 259.009C111.669 258.927 112.859 253.02 112.859 253.02C112.859 253.02 113.196 255.046 116.486 255.547C119.861 256.057 119.87 254.359 119.87 254.359Z" fill="#8758E7"/>
<path d="M216.667 91C216.667 92.4728 215.473 93.6667 214 93.6667C212.527 93.6667 211.333 92.4728 211.333 91C211.333 89.5272 212.527 88.3333 214 88.3333C215.473 88.3333 216.667 89.5272 216.667 91ZM214 91.5H206V90.5H214V91.5Z" fill="#8B8E99"/>
<path d="M233.545 91.1818C233.545 92.4356 233.311 93.5095 232.841 94.4034C232.375 95.2936 231.739 95.9754 230.932 96.4489C230.129 96.9223 229.218 97.1591 228.199 97.1591C227.18 97.1591 226.267 96.9223 225.46 96.4489C224.657 95.9716 224.021 95.2879 223.551 94.3977C223.085 93.5038 222.852 92.4318 222.852 91.1818C222.852 89.928 223.085 88.8561 223.551 87.9659C224.021 87.072 224.657 86.3883 225.46 85.9148C226.267 85.4413 227.18 85.2045 228.199 85.2045C229.218 85.2045 230.129 85.4413 230.932 85.9148C231.739 86.3883 232.375 87.072 232.841 87.9659C233.311 88.8561 233.545 89.928 233.545 91.1818ZM231.426 91.1818C231.426 90.2992 231.288 89.5549 231.011 88.9489C230.739 88.339 230.36 87.8788 229.875 87.5682C229.39 87.2538 228.831 87.0966 228.199 87.0966C227.566 87.0966 227.008 87.2538 226.523 87.5682C226.038 87.8788 225.657 88.339 225.381 88.9489C225.108 89.5549 224.972 90.2992 224.972 91.1818C224.972 92.0644 225.108 92.8106 225.381 93.4205C225.657 94.0265 226.038 94.4867 226.523 94.8011C227.008 95.1117 227.566 95.267 228.199 95.267C228.831 95.267 229.39 95.1117 229.875 94.8011C230.36 94.4867 230.739 94.0265 231.011 93.4205C231.288 92.8106 231.426 92.0644 231.426 91.1818ZM242.442 85.0455L243.158 86.375C242.904 86.5947 242.62 86.7538 242.305 86.8523C241.991 86.9508 241.622 87.0152 241.197 87.0455C240.777 87.072 240.277 87.0909 239.697 87.1023C239.046 87.1174 238.514 87.2405 238.101 87.4716C237.688 87.7027 237.372 88.053 237.152 88.5227C236.932 88.9886 236.788 89.5833 236.72 90.3068H236.817C237.089 89.7727 237.472 89.3655 237.964 89.0852C238.457 88.8049 239.035 88.6648 239.697 88.6648C240.421 88.6648 241.059 88.8277 241.612 89.1534C242.169 89.4754 242.603 89.9432 242.913 90.5568C243.228 91.1705 243.385 91.9129 243.385 92.7841C243.385 93.6818 243.216 94.4602 242.879 95.1193C242.542 95.7746 242.063 96.2803 241.442 96.6364C240.824 96.9924 240.091 97.1705 239.243 97.1705C238.398 97.1705 237.663 96.9867 237.038 96.6193C236.417 96.2481 235.936 95.7008 235.595 94.9773C235.258 94.25 235.089 93.3542 235.089 92.2898V91.5057C235.089 89.4527 235.472 87.9205 236.237 86.9091C237.002 85.8977 238.137 85.3826 239.641 85.3636C240.088 85.3561 240.487 85.3542 240.839 85.358C241.196 85.3617 241.506 85.3447 241.771 85.3068C242.036 85.2689 242.26 85.1818 242.442 85.0455ZM239.254 95.5227C239.675 95.5227 240.038 95.4148 240.345 95.1989C240.652 94.9792 240.887 94.6686 241.05 94.267C241.216 93.8655 241.3 93.3902 241.3 92.8409C241.3 92.2992 241.216 91.839 241.05 91.4602C240.883 91.0777 240.646 90.786 240.339 90.5852C240.033 90.3845 239.667 90.2841 239.243 90.2841C238.925 90.2841 238.639 90.3409 238.385 90.4545C238.131 90.5682 237.915 90.7348 237.737 90.9545C237.559 91.1742 237.423 91.4413 237.328 91.7557C237.233 92.0701 237.182 92.4318 237.175 92.8409C237.175 93.6629 237.36 94.3163 237.732 94.8011C238.103 95.2822 238.61 95.5227 239.254 95.5227ZM244.652 94.608H246.692C246.711 94.9337 246.857 95.1856 247.129 95.3636C247.402 95.5417 247.756 95.6307 248.192 95.6307C248.635 95.6307 249.008 95.5341 249.311 95.3409C249.618 95.1439 249.771 94.8466 249.771 94.4489C249.771 94.214 249.713 94.0076 249.595 93.8295C249.478 93.6477 249.313 93.5076 249.101 93.4091C248.889 93.3106 248.639 93.2614 248.351 93.2614H247.016V91.8011H248.351C248.779 91.8011 249.103 91.7027 249.322 91.5057C249.546 91.3087 249.658 91.0606 249.658 90.7614C249.658 90.4394 249.54 90.178 249.305 89.9773C249.074 89.7765 248.754 89.6761 248.345 89.6761C247.936 89.6761 247.595 89.7689 247.322 89.9545C247.054 90.1402 246.913 90.3788 246.902 90.6705H244.874C244.881 90.1629 245.033 89.7216 245.328 89.3466C245.627 88.9716 246.029 88.6799 246.533 88.4716C247.04 88.2633 247.612 88.1591 248.249 88.1591C248.93 88.1591 249.519 88.2614 250.016 88.4659C250.512 88.6705 250.894 88.9564 251.163 89.3239C251.432 89.6875 251.567 90.1155 251.567 90.608C251.567 91.0814 251.419 91.4735 251.124 91.7841C250.828 92.0909 250.43 92.3106 249.93 92.4432V92.5341C250.275 92.553 250.586 92.6515 250.862 92.8295C251.139 93.0038 251.358 93.2405 251.521 93.5398C251.684 93.839 251.766 94.1856 251.766 94.5795C251.766 95.1136 251.612 95.5758 251.305 95.9659C250.999 96.3523 250.576 96.6496 250.038 96.858C249.504 97.0663 248.893 97.1705 248.203 97.1705C247.533 97.1705 246.932 97.0701 246.402 96.8693C245.875 96.6648 245.457 96.3712 245.146 95.9886C244.836 95.6061 244.671 95.1458 244.652 94.608ZM253.385 97V88.2727H257.05C258.084 88.2727 258.9 88.4792 259.499 88.892C260.101 89.3049 260.402 89.8807 260.402 90.6193C260.402 91.108 260.232 91.5076 259.891 91.8182C259.554 92.125 259.093 92.3314 258.51 92.4375C258.968 92.4754 259.37 92.5909 259.714 92.7841C260.063 92.9773 260.336 93.2311 260.533 93.5455C260.73 93.8598 260.828 94.2216 260.828 94.6307C260.828 95.1117 260.701 95.5303 260.447 95.8864C260.197 96.2386 259.832 96.5133 259.351 96.7102C258.874 96.9034 258.294 97 257.612 97H253.385ZM255.311 95.3807H257.612C257.991 95.3807 258.288 95.2917 258.504 95.1136C258.72 94.9318 258.828 94.6856 258.828 94.375C258.828 94.0152 258.72 93.733 258.504 93.5284C258.288 93.3201 257.991 93.2159 257.612 93.2159H255.311V95.3807ZM255.311 91.8864H257.089C257.37 91.8864 257.61 91.8466 257.811 91.767C258.012 91.6837 258.165 91.5682 258.271 91.4205C258.377 91.2689 258.43 91.089 258.43 90.8807C258.43 90.5814 258.307 90.3466 258.061 90.1761C257.819 90.0057 257.482 89.9205 257.05 89.9205H255.311V91.8864ZM266.332 97.1705C265.48 97.1705 264.741 96.983 264.116 96.608C263.491 96.233 263.007 95.7083 262.662 95.0341C262.321 94.3598 262.151 93.572 262.151 92.6705C262.151 91.7689 262.321 90.9792 262.662 90.3011C263.007 89.6231 263.491 89.0966 264.116 88.7216C264.741 88.3466 265.48 88.1591 266.332 88.1591C267.185 88.1591 267.923 88.3466 268.548 88.7216C269.173 89.0966 269.656 89.6231 269.997 90.3011C270.342 90.9792 270.514 91.7689 270.514 92.6705C270.514 93.572 270.342 94.3598 269.997 95.0341C269.656 95.7083 269.173 96.233 268.548 96.608C267.923 96.983 267.185 97.1705 266.332 97.1705ZM266.344 95.5227C266.806 95.5227 267.192 95.3958 267.503 95.142C267.813 94.8845 268.045 94.5398 268.196 94.108C268.351 93.6761 268.429 93.1951 268.429 92.6648C268.429 92.1307 268.351 91.6477 268.196 91.2159C268.045 90.7803 267.813 90.4337 267.503 90.1761C267.192 89.9186 266.806 89.7898 266.344 89.7898C265.87 89.7898 265.476 89.9186 265.162 90.1761C264.851 90.4337 264.618 90.7803 264.463 91.2159C264.312 91.6477 264.236 92.1307 264.236 92.6648C264.236 93.1951 264.312 93.6761 264.463 94.108C264.618 94.5398 264.851 94.8845 265.162 95.142C265.476 95.3958 265.87 95.5227 266.344 95.5227ZM278.254 91.7841V93.4716H273.607V91.7841H278.254ZM274.243 88.2727V97H272.26V88.2727H274.243ZM279.601 88.2727V97H277.624V88.2727H279.601Z" fill="#1C1C1E"/>
<path d="M162.667 198C162.667 199.473 161.473 200.667 160 200.667C158.527 200.667 157.333 199.473 157.333 198C157.333 196.527 158.527 195.333 160 195.333C161.473 195.333 162.667 196.527 162.667 198ZM160 198.5H150V197.5H160V198.5Z" fill="#8B8E99"/>
<path d="M170.642 204H168.392L172.489 192.364H175.091L179.193 204H176.943L173.835 194.75H173.744L170.642 204ZM170.716 199.438H176.852V201.131H170.716V199.438ZM180.635 204V195.273H182.692V198.795H183.442L186.067 195.273H188.544L185.311 199.557L188.578 204H186.089L183.697 200.71H182.692V204H180.635ZM189.267 196.96V195.273H196.903V196.96H194.08V204H192.091V196.96H189.267ZM199.82 207.273C199.539 207.273 199.28 207.25 199.041 207.205C198.806 207.163 198.619 207.114 198.479 207.057L198.956 205.455C199.255 205.542 199.522 205.583 199.757 205.58C199.992 205.576 200.198 205.502 200.376 205.358C200.558 205.218 200.712 204.983 200.837 204.653L201.013 204.182L197.848 195.273H200.03L202.041 201.864H202.132L204.149 195.273H206.337L202.842 205.057C202.679 205.519 202.464 205.915 202.195 206.244C201.926 206.578 201.596 206.831 201.206 207.006C200.82 207.184 200.357 207.273 199.82 207.273ZM210.021 204.176C209.468 204.176 208.97 204.078 208.527 203.881C208.088 203.68 207.739 203.384 207.482 202.994C207.228 202.604 207.101 202.123 207.101 201.551C207.101 201.059 207.192 200.652 207.374 200.33C207.555 200.008 207.804 199.75 208.118 199.557C208.432 199.364 208.786 199.218 209.18 199.119C209.578 199.017 209.989 198.943 210.413 198.898C210.925 198.845 211.339 198.797 211.658 198.756C211.976 198.71 212.207 198.642 212.351 198.551C212.499 198.456 212.572 198.311 212.572 198.114V198.08C212.572 197.652 212.446 197.32 212.192 197.085C211.938 196.85 211.572 196.733 211.095 196.733C210.591 196.733 210.192 196.843 209.896 197.062C209.605 197.282 209.408 197.542 209.305 197.841L207.385 197.568C207.536 197.038 207.786 196.595 208.135 196.239C208.483 195.879 208.91 195.61 209.413 195.432C209.917 195.25 210.474 195.159 211.084 195.159C211.504 195.159 211.923 195.208 212.339 195.307C212.756 195.405 213.137 195.568 213.482 195.795C213.826 196.019 214.103 196.324 214.311 196.71C214.523 197.097 214.629 197.58 214.629 198.159V204H212.652V202.801H212.584C212.459 203.044 212.283 203.271 212.055 203.483C211.832 203.691 211.55 203.86 211.209 203.989C210.872 204.114 210.476 204.176 210.021 204.176ZM210.555 202.665C210.968 202.665 211.326 202.583 211.629 202.42C211.932 202.254 212.165 202.034 212.328 201.761C212.495 201.489 212.578 201.191 212.578 200.869V199.841C212.514 199.894 212.404 199.943 212.249 199.989C212.097 200.034 211.927 200.074 211.737 200.108C211.548 200.142 211.36 200.172 211.175 200.199C210.989 200.225 210.828 200.248 210.692 200.267C210.385 200.309 210.11 200.377 209.868 200.472C209.625 200.566 209.434 200.699 209.294 200.869C209.154 201.036 209.084 201.252 209.084 201.517C209.084 201.896 209.222 202.182 209.499 202.375C209.775 202.568 210.127 202.665 210.555 202.665ZM216.095 204L216.084 202.307H216.385C216.612 202.307 216.804 202.256 216.959 202.153C217.114 202.051 217.243 201.881 217.345 201.642C217.447 201.4 217.527 201.074 217.584 200.665C217.641 200.256 217.68 199.746 217.703 199.136L217.857 195.273H224.22V204H222.232V196.96H219.726L219.589 199.773C219.555 200.5 219.474 201.131 219.345 201.665C219.22 202.195 219.042 202.633 218.811 202.977C218.584 203.322 218.298 203.58 217.953 203.75C217.608 203.917 217.201 204 216.732 204H216.095ZM227.683 198.114H230.257C231.371 198.114 232.232 198.384 232.842 198.926C233.452 199.468 233.759 200.178 233.763 201.057C233.759 201.629 233.619 202.136 233.342 202.58C233.07 203.023 232.672 203.371 232.149 203.625C231.63 203.875 231 204 230.257 204H226.291V195.273H228.274V202.312H230.257C230.704 202.312 231.071 202.199 231.359 201.972C231.647 201.741 231.791 201.445 231.791 201.085C231.791 200.706 231.647 200.398 231.359 200.159C231.071 199.92 230.704 199.801 230.257 199.801H227.683V198.114ZM241.52 198.784V200.472H236.872V198.784H241.52ZM237.509 195.273V204H235.526V195.273H237.509ZM242.866 195.273V204H240.889V195.273H242.866ZM248.754 204.17C247.902 204.17 247.163 203.983 246.538 203.608C245.913 203.233 245.429 202.708 245.084 202.034C244.743 201.36 244.572 200.572 244.572 199.67C244.572 198.769 244.743 197.979 245.084 197.301C245.429 196.623 245.913 196.097 246.538 195.722C247.163 195.347 247.902 195.159 248.754 195.159C249.607 195.159 250.345 195.347 250.97 195.722C251.595 196.097 252.078 196.623 252.419 197.301C252.764 197.979 252.936 198.769 252.936 199.67C252.936 200.572 252.764 201.36 252.419 202.034C252.078 202.708 251.595 203.233 250.97 203.608C250.345 203.983 249.607 204.17 248.754 204.17ZM248.766 202.523C249.228 202.523 249.614 202.396 249.925 202.142C250.235 201.884 250.466 201.54 250.618 201.108C250.773 200.676 250.851 200.195 250.851 199.665C250.851 199.131 250.773 198.648 250.618 198.216C250.466 197.78 250.235 197.434 249.925 197.176C249.614 196.919 249.228 196.79 248.766 196.79C248.292 196.79 247.898 196.919 247.584 197.176C247.273 197.434 247.04 197.78 246.885 198.216C246.733 198.648 246.658 199.131 246.658 199.665C246.658 200.195 246.733 200.676 246.885 201.108C247.04 201.54 247.273 201.884 247.584 202.142C247.898 202.396 248.292 202.523 248.766 202.523ZM258.489 204.17C257.617 204.17 256.869 203.979 256.244 203.597C255.623 203.214 255.144 202.686 254.807 202.011C254.473 201.333 254.307 200.553 254.307 199.67C254.307 198.784 254.477 198.002 254.818 197.324C255.159 196.642 255.64 196.112 256.261 195.733C256.886 195.35 257.625 195.159 258.477 195.159C259.186 195.159 259.813 195.29 260.358 195.551C260.907 195.809 261.345 196.174 261.67 196.648C261.996 197.117 262.182 197.667 262.227 198.295H260.261C260.182 197.875 259.992 197.525 259.693 197.244C259.398 196.96 259.002 196.818 258.506 196.818C258.085 196.818 257.716 196.932 257.398 197.159C257.08 197.383 256.831 197.705 256.653 198.125C256.479 198.545 256.392 199.049 256.392 199.636C256.392 200.231 256.479 200.742 256.653 201.17C256.828 201.595 257.072 201.922 257.386 202.153C257.705 202.381 258.078 202.494 258.506 202.494C258.809 202.494 259.08 202.437 259.318 202.324C259.561 202.206 259.763 202.038 259.926 201.818C260.089 201.598 260.201 201.331 260.261 201.017H262.227C262.178 201.634 261.996 202.182 261.682 202.659C261.367 203.133 260.939 203.504 260.398 203.773C259.856 204.038 259.22 204.17 258.489 204.17ZM263.283 196.96V195.273H270.919V196.96H268.095V204H266.107V196.96H263.283ZM273.949 198.114H276.523C277.636 198.114 278.498 198.384 279.108 198.926C279.718 199.468 280.025 200.178 280.028 201.057C280.025 201.629 279.884 202.136 279.608 202.58C279.335 203.023 278.938 203.371 278.415 203.625C277.896 203.875 277.265 204 276.523 204H272.557V195.273H274.54V202.312H276.523C276.97 202.312 277.337 202.199 277.625 201.972C277.913 201.741 278.057 201.445 278.057 201.085C278.057 200.706 277.913 200.398 277.625 200.159C277.337 199.92 276.97 199.801 276.523 199.801H273.949V198.114Z" fill="#1C1C1E"/>
</svg>
