<svg xmlns="http://www.w3.org/2000/svg" xmlns:xlink="http://www.w3.org/1999/xlink" version="1.1" width="1080"
     height="1080" viewBox="0 0 1080 1080" xml:space="preserve">
<g transform="matrix(1 0 0 1 540 540)" id="85333af2-c8c5-492f-a235-bc9f710f6536">
<rect
  style="stroke: none; stroke-width: 1; stroke-dasharray: none; stroke-linecap: butt; stroke-dashoffset: 0; stroke-linejoin: miter; stroke-miterlimit: 4; fill: rgb(255,255,255); fill-rule: nonzero; opacity: 1; visibility: hidden;"
  vector-effect="non-scaling-stroke" x="-540" y="-540" rx="0" ry="0" width="1080" height="1080"/>
</g>
  <g transform="matrix(1 0 0 1 540 540)" id="72508752-e573-40d1-9df0-f6d3c30f53bc">
</g>
  <g transform="matrix(54 0 0 54 540 540)">
<g style="">
		<g transform="matrix(1 0 0 1 3.5 0)">
<path
  style="stroke: currentColor; stroke-width: 1; stroke-dasharray: none; stroke-linecap: butt; stroke-dashoffset: 0; stroke-linejoin: round; stroke-miterlimit: 4; fill: rgb(255,255,255); fill-opacity: 0; fill-rule: nonzero; opacity: 1;"
  vector-effect="non-scaling-stroke" transform=" translate(-13.5, -10)"
  d="M 8 1.09502 C 8.45701 1.03241 8.92447 1 9.4 1 C 14.7019 1 19 5.02944 19 10 C 19 14.9706 14.7019 19 9.4 19 C 8.92447 19 8.45701 18.9676 8 18.905"
  stroke-linecap="round"/>
</g>
  <g transform="matrix(1 0 0 1 -4 0)">
<path
  style="stroke:currentColor; stroke-width: 1.5; stroke-dasharray: none; stroke-linecap: round; stroke-dashoffset: 0; stroke-linejoin: round; stroke-miterlimit: 4; fill: rgb(255,255,255); fill-opacity: 0; fill-rule: nonzero; opacity: 1;"
  vector-effect="non-scaling-stroke" transform=" translate(-6, -10)"
  d="M 8.5 12.5 C 9.0057 12.0085 11 10.7002 11 10 M 8.5 7.5 C 9.0057 7.99153 11 9.29977 11 10 M 11 10 L 1 10"
  stroke-linecap="round"/>
</g>
</g>
</g>
</svg>
