<svg width="48" height="48" viewBox="0 0 48 48" fill="none" xmlns="http://www.w3.org/2000/svg">
<rect width="48" height="48" rx="24" fill="#13A7DA"/>
<path d="M35.7154 30.5718C35.9332 30.5718 36.0702 30.3371 35.9624 30.1474L33.847 26.4247C33.6682 26.1093 33.4434 25.8215 33.1764 25.576C32.8632 25.2882 32.4299 24.9636 32.0008 24.8796C32.8605 24.7062 33.6141 24.2395 34.1525 23.5886C34.6916 22.9372 35.015 22.1015 35.015 21.1905C35.015 20.1515 34.594 19.2107 33.9131 18.5295C33.2322 17.8482 32.2917 17.4271 31.2527 17.4271H21.6193C21.3035 17.4271 21.0451 17.6856 21.0451 18.0016V22.3253H16.8132V17.9951C16.8132 17.6818 16.5591 17.4277 16.246 17.4277H12.5672C12.2541 17.4277 12 17.6818 12 17.9951V29.9778C12 30.291 12.2541 30.5452 12.5672 30.5452H16.246C16.5591 30.5452 16.8132 30.291 16.8132 29.9778V25.7023H21.0451V30.0054C21.0451 30.3187 21.2992 30.5729 21.6123 30.5729H24.3138C24.6269 30.5729 24.881 30.3187 24.881 30.0054V26.5266C24.881 26.506 24.881 26.4859 24.8815 26.4654C24.8989 25.4112 25.6123 24.5262 26.582 24.2509C26.601 24.246 26.6199 24.2406 26.6383 24.2357C26.6757 24.226 26.7131 24.2173 26.7516 24.2097C26.8084 24.1978 26.8664 24.188 26.9249 24.1805C26.9639 24.1756 27.0035 24.1712 27.043 24.1685C27.0761 24.1658 27.1096 24.1642 27.1427 24.1631C27.1692 24.162 27.1963 24.1615 27.2234 24.1615H27.9981C28.0251 24.1615 28.0522 24.162 28.0788 24.1631C28.1118 24.1642 28.1454 24.1658 28.1785 24.1685C28.218 24.1712 28.2575 24.1756 28.2966 24.1805C28.3551 24.188 28.413 24.1978 28.4699 24.2097C28.5078 24.2173 28.5457 24.226 28.5831 24.2357C28.6015 24.2401 28.6205 24.2455 28.6389 24.2509C29.6086 24.5262 30.322 25.4112 30.3394 26.4654C30.3399 26.4859 30.3399 26.506 30.3399 26.5266V30.5615L35.7154 30.5718ZM27.6107 23.7789C26.3079 23.7789 25.2618 22.6776 25.3523 21.3547C25.4287 20.2383 26.3323 19.3326 27.4482 19.2546C28.7711 19.1625 29.874 20.209 29.874 21.514C29.874 22.8191 28.8605 23.7789 27.6107 23.7789Z" fill="white"/>
</svg>
